<?xml version="1.0" encoding="utf-8"?>
<!-- Generator: Adobe Illustrator 23.0.1, SVG Export Plug-In . SVG Version: 6.00 Build 0)  -->
<svg version="1.1" id="椭圆_2_1_" xmlns="http://www.w3.org/2000/svg" xmlns:xlink="http://www.w3.org/1999/xlink" x="0px"
	 y="0px" viewBox="0 0 325.44 325.44" style="enable-background:new 0 0 325.44 325.44;" xml:space="preserve">
<style type="text/css">
	.st0{fill:#e4e4e4;}
</style>
<g id="椭圆_2">
	<g>
		<path class="st0" d="M162.72,123.36c-21.74,0-39.36,17.62-39.36,39.36s17.62,39.36,39.36,39.36c21.74,0,39.36-17.62,39.36-39.36
			S184.46,123.36,162.72,123.36z M162.72,0C123.24,0,87.05,14.06,58.88,37.44H0v125.28c0,89.87,72.85,162.72,162.72,162.72
			c39.48,0,75.67-14.06,103.84-37.44h58.88V162.72C325.44,72.85,252.59,0,162.72,0z M162.72,266.4
			c-57.26,0-103.68-46.42-103.68-103.68S105.46,59.04,162.72,59.04S266.4,105.46,266.4,162.72S219.98,266.4,162.72,266.4z"/>
	</g>
</g>
</svg>
