<?xml version="1.0" standalone="no"?><!DOCTYPE svg PUBLIC "-//W3C//DTD SVG 1.1//EN" "http://www.w3.org/Graphics/SVG/1.1/DTD/svg11.dtd"><svg t="1562915905248" class="icon" viewBox="0 0 1024 1024" version="1.1" xmlns="http://www.w3.org/2000/svg" p-id="7044" xmlns:xlink="http://www.w3.org/1999/xlink" width="144" height="144"><defs><style type="text/css"></style></defs><path d="M535.789976 199.597229a76.402323 76.402323 0 0 0 53.707904 22.062681H696.467276a76.402323 76.402323 0 0 1-53.707905-22.062681l-48.126706-47.562545a76.405395 76.405395 0 0 0-53.707905-22.062681H433.955365a76.402323 76.402323 0 0 1 53.707905 22.062681l48.126706 47.562545z" fill="#FFB855" p-id="7045"></path><path d="M380.693874 152.034684l48.126706 47.562545a76.402323 76.402323 0 0 0 53.707905 22.062681H589.49788a76.402323 76.402323 0 0 1-53.707904-22.062681l-48.126706-47.562545a76.405395 76.405395 0 0 0-53.707905-22.062681H326.988017a76.401299 76.401299 0 0 1 53.705857 22.062681z" fill="#FFC85A" p-id="7046"></path><path d="M909.575696 221.658886H482.528485a76.402323 76.402323 0 0 1-53.707905-22.062681l-48.126706-47.562545a76.405395 76.405395 0 0 0-53.707904-22.062681H114.96082c-25.318636 0-45.843442 20.524805-45.843441 45.843442v672.368087c0 25.318636 20.524805 45.843442 45.843441 45.843441h794.614876c25.318636 0 45.843442-20.524805 45.843441-45.843441V267.502328c0-25.31966-20.524805-45.843442-45.843441-45.843442zM588.673653 328.626234c0 16.877726-13.68218 30.561953-30.561954 30.561953h-15.281488c-16.879773 0-30.561953-13.684227-30.561953-30.561953v-15.281489c0-16.877726 13.68218-30.561953 30.561953-30.561953h15.281488c16.879773 0 30.561953 13.684227 30.561954 30.561953v15.281489z m305.621578 0c0 16.877726-13.68218 30.561953-30.561953 30.561953H649.797559c-16.879773 0-30.561953-13.684227-30.561953-30.561953v-15.281489c0-16.877726 13.68218-30.561953 30.561953-30.561953H863.732254c16.879773 0 30.561953 13.684227 30.561953 30.561953v15.281489h0.001024z" fill="#FFDC69" p-id="7047"></path><path d="M863.732254 282.782792H649.797559c-16.879773 0-30.561953 13.684227-30.561953 30.561953v15.281489c0 16.877726 13.68218 30.561953 30.561953 30.561953H863.732254c16.879773 0 30.561953-13.684227 30.561953-30.561953v-15.281489c0.001024-16.877726-13.681156-30.561953-30.561953-30.561953z" fill="#FFF0B9" p-id="7048"></path><path d="M558.111699 282.782792h-15.281488c-16.879773 0-30.561953 13.684227-30.561953 30.561953v15.281489c0 16.877726 13.68218 30.561953 30.561953 30.561953h15.281488c16.879773 0 30.561953-13.684227 30.561954-30.561953v-15.281489c0-16.877726-13.68218-30.561953-30.561954-30.561953z" fill="#FFC85A" p-id="7049"></path></svg>