<?xml version="1.0" encoding="utf-8"?>
<!-- Generator: Adobe Illustrator 23.0.1, SVG Export Plug-In . SVG Version: 6.00 Build 0)  -->
<svg version="1.1" id="图层_1" xmlns="http://www.w3.org/2000/svg" xmlns:xlink="http://www.w3.org/1999/xlink" x="0px" y="0px"
	 viewBox="0 0 48 48" style="enable-background:new 0 0 48 48;" xml:space="preserve">
<style type="text/css">
	.st0{fill:#FFFFFF;}
	.st1{fill:#689F63;}
</style>
<polygon class="st0" points="6.43,12.91 24.8,2.62 42.9,13.38 42.63,34.44 24.26,44.74 6.16,33.97 "/>
<path class="st1" d="M42.33,11.61L26.45,2.45c-1-0.57-2.33-0.57-3.34,0l-15.9,9.17C6.18,12.2,5.55,13.3,5.55,14.5v18.33
	c0,1.2,0.65,2.32,1.67,2.91l4.16,2.39c2.02,1,2.75,1,3.67,1c3,0,4.71-1.83,4.71-4.96v-18.1c0-0.26-0.2-0.45-0.45-0.45h-2
	c-0.26,0-0.45,0.2-0.45,0.45v18.09c0,1.39-1.45,2.79-3.81,1.61l-4.36-2.51c-0.15-0.1-0.26-0.26-0.26-0.43V14.5
	c0-0.18,0.1-0.35,0.26-0.43l15.86-9.18c0.15-0.08,0.35-0.08,0.49,0l15.88,9.17c0.15,0.08,0.26,0.26,0.26,0.43v18.33
	c0,0.18-0.1,0.35-0.24,0.43l-15.88,9.17c-0.14,0.08-0.35,0.08-0.49,0L20.49,40c-0.12-0.06-0.28-0.08-0.39-0.02
	c-1.12,0.65-1.33,0.73-2.39,1.1c-0.28,0.08-0.65,0.24,0.14,0.69l5.3,3.14c0.51,0.29,1.08,0.45,1.67,0.45
	c0.57-0.02,1.16-0.15,1.65-0.47l15.88-9.17c1.02-0.59,1.67-1.69,1.67-2.89V14.5C44,13.32,43.35,12.2,42.33,11.61L42.33,11.61z"/>
<path class="st1" d="M29.71,29.93c-4.2,0-5.12-1.06-5.44-3.14c-0.04-0.24-0.22-0.39-0.45-0.39h-2.06c-0.26,0-0.45,0.2-0.45,0.45
	c0,2.67,1.45,5.87,8.4,5.87l-0.02-0.02c5.02,0,7.91-1.98,7.91-5.44c0-3.41-2.32-4.34-7.2-4.98c-4.93-0.65-5.44-0.98-5.44-2.14
	c0-0.94,0.43-2.22,4.08-2.22c3.28,0,4.48,0.71,4.96,2.91c0.06,0.2,0.24,0.35,0.45,0.35h2.06c0.12,0,0.26-0.04,0.33-0.14
	c0.08-0.1,0.14-0.22,0.12-0.35c-0.33-3.79-2.85-5.55-7.93-5.55c-4.52,0-7.22,1.9-7.22,5.1c0,3.48,2.69,4.44,7.05,4.87
	c5.2,0.51,5.61,1.28,5.61,2.3C34.48,29.16,33.07,29.93,29.71,29.93L29.71,29.93z"/>
</svg>
