<?xml version="1.0" encoding="utf-8"?>
<!-- Generator: Adobe Illustrator 23.0.1, SVG Export Plug-In . SVG Version: 6.00 Build 0)  -->
<svg version="1.1" id="图层_1" xmlns="http://www.w3.org/2000/svg" xmlns:xlink="http://www.w3.org/1999/xlink" x="0px" y="0px"
	 viewBox="0 0 144 144" style="enable-background:new 0 0 144 144;" xml:space="preserve">
<style type="text/css">
	.st0{fill:#333333;}
</style>
<path class="st0" d="M46.8,76.9c-3.1,0-5.6-2.5-5.6-5.6c0-1.5,0.6-2.9,1.7-3.9L93.3,17c2.3-2.1,5.8-2,7.9,0.3c2,2.1,2,5.4,0,7.6
	L50.8,75.3C49.7,76.3,48.3,76.9,46.8,76.9z"/>
<path class="st0" d="M97.2,128.7c-1.4,0-2.8-0.6-3.9-1.7L42.9,76.7c-2.1-2.3-2-5.8,0.3-7.9c2.1-2,5.4-2,7.6,0l50.4,50.4
	c2.2,2.2,2.2,5.7,0,7.9C100.1,128.1,98.7,128.7,97.2,128.7z"/>
</svg>
