<?xml version="1.0" encoding="utf-8"?>
<!-- Generator: Adobe Illustrator 23.0.1, SVG Export Plug-In . SVG Version: 6.00 Build 0)  -->
<svg version="1.1" id="图层_1" xmlns="http://www.w3.org/2000/svg" xmlns:xlink="http://www.w3.org/1999/xlink" x="0px" y="0px"
	 viewBox="0 0 144 144" style="enable-background:new 0 0 144 144;" xml:space="preserve">
<style type="text/css">
	.st0{fill:#333333;}
</style>
<path class="st0" d="M83.5,72l58-69.1c1-1.1,0.2-2.9-1.3-2.9h-17.6c-1,0-2,0.5-2.7,1.3l-47.8,57l-47.8-57C23.5,0.5,22.5,0,21.4,0
	H3.8C2.3,0,1.5,1.7,2.4,2.9l58,69.1l-58,69.1c-1,1.1-0.2,2.9,1.3,2.9h17.6c1,0,2-0.5,2.7-1.3l47.8-57l47.8,57
	c0.7,0.8,1.7,1.3,2.7,1.3h17.6c1.5,0,2.3-1.7,1.3-2.9L83.5,72z"/>
</svg>
