<?xml version="1.0" encoding="utf-8"?>
<!-- Generator: Adobe Illustrator 23.0.1, SVG Export Plug-In . SVG Version: 6.00 Build 0)  -->
<svg version="1.1" id="图层_1" xmlns="http://www.w3.org/2000/svg" xmlns:xlink="http://www.w3.org/1999/xlink" x="0px" y="0px"
	 viewBox="0 0 144 144" style="enable-background:new 0 0 144 144;" xml:space="preserve">
<style type="text/css">
	.st0{fill:#333333;}
</style>
<path class="st0" d="M72,12.4c-25.3,0-45.8,20.5-45.8,45.8v67.4h91.6V58.3C117.8,32.9,97.3,12.4,72,12.4 M72,24.2
	c9.1,0,17.6,3.5,24.1,10c6.4,6.4,10,15,10,24.1v55.6H38V58.3c0-9.1,3.5-17.6,10-24.1S62.9,24.2,72,24.2 M72,144
	c-10.1,0-18.3-8.2-18.3-18.3h10.5c0,4.3,3.5,7.9,7.9,7.9c4.3,0,7.9-3.5,7.9-7.9h10.5C90.3,135.8,82.1,144,72,144"/>
<path class="st0" d="M78.5,16.4H65.5V6.5C65.5,2.9,68.4,0,72,0s6.5,2.9,6.5,6.5V16.4z M128.3,125.7H15.7c-0.7,0-1.3-0.6-1.3-1.3
	v-9.2c0-0.7,0.6-1.3,1.3-1.3h112.6c0.7,0,1.3,0.6,1.3,1.3v9.2C129.6,125.1,129,125.7,128.3,125.7"/>
</svg>
