<?xml version="1.0" encoding="utf-8"?>
<!-- Generator: Adobe Illustrator 23.0.1, SVG Export Plug-In . SVG Version: 6.00 Build 0)  -->
<svg version="1.1" id="图层_1" xmlns="http://www.w3.org/2000/svg" xmlns:xlink="http://www.w3.org/1999/xlink" x="0px" y="0px"
	 viewBox="0 0 144 144" style="enable-background:new 0 0 144 144;" xml:space="preserve">
<style type="text/css">
	.st0{fill:#333333;}
</style>
<path class="st0" d="M0,19.8v20.6h10.3V19.8c0-6.2,4.1-10.3,10.3-10.3h20.6V-0.7H20.6C9.3-0.7,0,8.5,0,19.8z M123.4-0.7h-20.6V9.5
	h20.6c6.2,0,10.3,4.1,10.3,10.3v20.6H144V19.8C144,8.5,134.7-0.7,123.4-0.7z M10.3,122.7v-20.6H0v20.6c0,11.3,9.3,20.6,20.6,20.6
	h20.6V133H20.6C14.4,133,10.3,128.8,10.3,122.7z M133.7,122.7c0,6.2-4.1,10.3-10.3,10.3h-20.6v10.3h20.6c11.3,0,20.6-9.3,20.6-20.6
	v-20.6h-10.3C133.7,102.1,133.7,122.7,133.7,122.7z"/>
<path class="st0" d="M0,40.4c0,2.8,2.3,5.1,5.1,5.1s5.1-2.3,5.1-5.1c0-2.8-2.3-5.1-5.1-5.1C2.3,35.2,0,37.5,0,40.4
	C0,40.4,0,40.4,0,40.4z"/>
<path class="st0" d="M0,71.2c0,2.8,2.3,5.1,5.1,5.1s5.1-2.3,5.1-5.1c0-2.8-2.3-5.1-5.1-5.1C2.3,66.1,0,68.4,0,71.2
	C0,71.2,0,71.2,0,71.2z"/>
<path class="st0" d="M133.7,71.2c0,2.8,2.3,5.1,5.1,5.1c2.8,0,5.1-2.3,5.1-5.1c0,0,0,0,0,0c0-2.8-2.3-5.1-5.1-5.1
	C136,66.1,133.7,68.4,133.7,71.2C133.7,71.2,133.7,71.2,133.7,71.2z"/>
<path class="st0" d="M0,102.1c0,2.8,2.3,5.1,5.1,5.1s5.1-2.3,5.1-5.1c0-2.8-2.3-5.1-5.1-5.1C2.3,97,0,99.3,0,102.1
	C0,102.1,0,102.1,0,102.1z"/>
<path class="st0" d="M133.7,40.4c0,2.8,2.3,5.1,5.1,5.1c2.8,0,5.1-2.3,5.1-5.1c0,0,0,0,0,0c0-2.8-2.3-5.1-5.1-5.1
	C136,35.2,133.7,37.5,133.7,40.4C133.7,40.4,133.7,40.4,133.7,40.4z"/>
<path class="st0" d="M36,4.4c0,2.8,2.3,5.1,5.1,5.1c2.8,0,5.1-2.3,5.1-5.1S44-0.7,41.1-0.7C38.3-0.7,36,1.6,36,4.4z"/>
<path class="st0" d="M97.7,4.4c0,2.8,2.3,5.1,5.1,5.1c2.8,0,5.1-2.3,5.1-5.1c0,0,0,0,0,0c0-2.8-2.3-5.1-5.1-5.1
	C100-0.8,97.7,1.5,97.7,4.4C97.7,4.4,97.7,4.4,97.7,4.4z"/>
<path class="st0" d="M36,138.1c0,2.8,2.3,5.1,5.1,5.1c2.8,0,5.1-2.3,5.1-5.1c0-2.8-2.3-5.1-5.1-5.1C38.3,133,36,135.3,36,138.1
	L36,138.1z"/>
<path class="st0" d="M97.7,138.1c0,2.8,2.3,5.1,5.1,5.1c2.8,0,5.1-2.3,5.1-5.1c0,0,0,0,0,0c0-2.8-2.3-5.1-5.1-5.1
	C100,133,97.7,135.3,97.7,138.1C97.7,138.1,97.7,138.1,97.7,138.1z"/>
<path class="st0" d="M133.7,102.1c0,2.8,2.3,5.1,5.1,5.1c2.8,0,5.1-2.3,5.1-5.1c0,0,0,0,0,0c0-2.8-2.3-5.1-5.1-5.1
	C136,97,133.7,99.3,133.7,102.1C133.7,102.1,133.7,102.1,133.7,102.1z"/>
<path class="st0" d="M5.1,66.1h133.7v10.3H5.1V66.1z"/>
</svg>
