<?xml version="1.0" standalone="no"?><!DOCTYPE svg PUBLIC "-//W3C//DTD SVG 1.1//EN" "http://www.w3.org/Graphics/SVG/1.1/DTD/svg11.dtd"><svg t="1564019787163" class="icon" viewBox="0 0 1024 1024" version="1.1" xmlns="http://www.w3.org/2000/svg" p-id="2960" xmlns:xlink="http://www.w3.org/1999/xlink" width="144" height="144"><defs><style type="text/css"></style></defs><path d="M736 339.2c5.12-17.92 7.68-37.12 7.68-57.6s-2.56-38.4-7.68-57.6l35.84-32c5.12-5.12 7.68-14.08 3.84-20.48l-37.12-64c-3.84-6.4-11.52-10.24-19.2-7.68L674.56 115.2c-28.16-25.6-62.72-44.8-99.84-56.32L565.76 12.8c-1.28-7.68-7.68-12.8-15.36-12.8h-74.24c-7.68 0-14.08 5.12-15.36 12.8l-8.96 46.08c-38.4 10.24-71.68 30.72-98.56 57.6l-44.8-15.36c-7.68-2.56-15.36 0-19.2 7.68l-39.68 64c-3.84 6.4-2.56 15.36 3.84 20.48l34.56 30.72c-5.12 17.92-7.68 37.12-7.68 57.6s2.56 38.4 7.68 57.6L252.16 371.2c-5.12 5.12-7.68 14.08-3.84 20.48l37.12 64c3.84 6.4 11.52 10.24 19.2 7.68l44.8-15.36c26.88 26.88 61.44 46.08 98.56 57.6l8.96 46.08c1.28 7.68 7.68 12.8 15.36 12.8h74.24c7.68 0 14.08-5.12 15.36-12.8l8.96-46.08c38.4-10.24 71.68-30.72 98.56-57.6l44.8 15.36c7.68 2.56 15.36 0 19.2-7.68l37.12-64c3.84-6.4 2.56-15.36-3.84-20.48l-30.72-32zM512 445.44c-89.6 0-163.84-72.96-163.84-163.84S421.12 117.76 512 117.76c89.6 0 163.84 72.96 163.84 163.84S601.6 445.44 512 445.44z" fill="#44C4A1" p-id="2961"></path><path d="M512 455.68c-96 0-174.08-78.08-174.08-174.08S416 107.52 512 107.52 686.08 185.6 686.08 281.6 608 455.68 512 455.68z m0-328.96c-84.48 0-154.88 69.12-154.88 154.88S426.24 436.48 512 436.48 666.88 367.36 666.88 281.6 596.48 126.72 512 126.72z" fill="#3EA69B" p-id="2962"></path><path d="M512 281.6m-83.2 0a83.2 83.2 0 1 0 166.4 0 83.2 83.2 0 1 0-166.4 0Z" fill="#3EA69B" p-id="2963"></path><path d="M975.36 290.56v646.4H48.64V290.56c0-12.8 10.24-24.32 24.32-24.32h879.36c12.8 0 23.04 10.24 23.04 24.32z" fill="#3A556A" p-id="2964"></path><path d="M0 935.68h1024v66.56H0z" fill="#EBF0F3" p-id="2965"></path><path d="M1022.72 1002.24H1.28L71.68 1024h880.64zM440.32 961.28h143.36v15.36H440.32z" fill="#D5D6DB" p-id="2966"></path><path d="M104.96 317.44h814.08v567.04H104.96z" fill="#64798A" p-id="2967"></path><path d="M331.52 655.36l-20.48 46.08h-35.84l89.6-202.24h35.84l89.6 202.24h-35.84l-20.48-46.08h-102.4z m87.04-30.72l-37.12-83.2-37.12 83.2h74.24zM654.08 517.12c14.08 11.52 20.48 29.44 20.48 53.76 0 24.32-7.68 42.24-21.76 53.76-14.08 11.52-35.84 16.64-66.56 16.64H550.4v58.88h-34.56V499.2h69.12c32 0 55.04 6.4 69.12 17.92z m-24.32 83.2c6.4-7.68 10.24-17.92 10.24-32s-3.84-24.32-12.8-29.44c-8.96-6.4-21.76-8.96-40.96-8.96h-34.56v80.64h39.68c19.2 1.28 32-2.56 38.4-10.24zM715.52 499.2h33.28v202.24h-34.56V499.2h1.28z" fill="#FFFFFF" p-id="2968"></path><path d="M181.76 398.08h71.68v39.68h-71.68zM296.96 398.08h537.6v39.68h-537.6zM770.56 764.16h71.68v39.68h-71.68zM181.76 764.16h537.6v39.68h-537.6z" fill="#FCD462" p-id="2969"></path></svg>