<?xml version="1.0" encoding="utf-8"?>
<!-- Generator: Adobe Illustrator 23.0.1, SVG Export Plug-In . SVG Version: 6.00 Build 0)  -->
<svg version="1.1" id="图层_1" xmlns="http://www.w3.org/2000/svg" xmlns:xlink="http://www.w3.org/1999/xlink" x="0px" y="0px"
	 viewBox="0 0 144 116.4" style="enable-background:new 0 0 144 116.4;" xml:space="preserve">
<style type="text/css">
	.st0{fill:#F0C48A;}
	.st1{fill:#D3E6F8;}
	.st2{fill:#FFFFFF;}
	.st3{fill:#A4CFF2;}
	.st4{fill:#4C4372;}
	.st5{fill:#FD919E;}
	.st6{fill:#E8677D;}
</style>
<path class="st0" d="M13.8,58.2c0,32.2,26.1,58.2,58.2,58.2s58.2-26.1,58.2-58.2S104.2,0,72,0S13.8,26.1,13.8,58.2z"/>
<path class="st1" d="M131.9,86.9H29c-5.7,0-10.4-4.7-10.4-10.4V12.3c0-5.7,4.7-10.4,10.4-10.4h102.9c5.7,0,10.4,4.7,10.4,10.4v64.2
	C142.3,82.3,137.7,86.9,131.9,86.9z"/>
<path class="st2" d="M18.6,72.9v3.6c0,5.7,4.7,10.4,10.4,10.4H132c5.7,0,10.4-4.7,10.4-10.4v-3.6C142.4,72.9,18.6,72.9,18.6,72.9z
	 M67.2,86.9h26.5v17.7H67.2L67.2,86.9z M110.4,114.6H50.5v-4.9c0-2.8,2.2-5,5-5h49.9c2.8,0,5,2.2,5,5
	C110.4,109.6,110.4,114.6,110.4,114.6z"/>
<path class="st1" d="M99.8,114.6h10.7v-4.9c0-2.8-2.2-5-5-5h-5.7V114.6z M131.7,87.6c5.9,0,10.7-4.8,10.7-10.7v-4.8h-10.7V87.6z"/>
<path class="st3" d="M131.7,1.9c5.9,0,10.7,4.8,10.7,10.7v60.4h-10.7V1.9z"/>
<path class="st1" d="M87.4,86.9h6.3v17.3h-6.3V86.9z"/>
<path class="st4" d="M131.9,88.6H29c-6.6,0-12.1-5.4-12.1-12.1V12.3c0-6.6,5.4-12.1,12.1-12.1h102.9c6.6,0,12.1,5.4,12.1,12.1v64.2
	C144,83.2,138.6,88.6,131.9,88.6z M29,3.5c-4.8,0-8.8,3.9-8.8,8.8v64.2c0,4.8,3.9,8.7,8.7,8.7h102.9c4.8,0,8.7-3.9,8.7-8.7V12.3
	c0-4.8-3.9-8.7-8.7-8.7L29,3.5L29,3.5z"/>
<path class="st4" d="M93.7,106.3H67.2c-0.9,0-1.7-0.7-1.7-1.7V86.9c0-0.9,0.7-1.7,1.7-1.7h26.5c0.9,0,1.7,0.7,1.7,1.7v17.7
	C95.4,105.5,94.6,106.3,93.7,106.3z M68.9,103h23.2V88.6H68.9C68.9,88.6,68.9,103,68.9,103z"/>
<path class="st4" d="M110.4,116.2H50.5c-0.9,0-1.7-0.7-1.7-1.7v-4.9c0-3.7,3-6.7,6.7-6.7h49.9c3.7,0,6.7,3,6.7,6.7v4.9
	C112.1,115.5,111.3,116.2,110.4,116.2z M52.2,112.9h56.6v-3.3c0-1.9-1.5-3.4-3.4-3.4H55.5c-1.9,0-3.4,1.5-3.4,3.4
	C52.2,109.7,52.2,112.9,52.2,112.9z M140.3,74.6h-121c-0.9,0-1.7-0.7-1.7-1.7s0.7-1.7,1.7-1.7h121c0.9,0,1.7,0.7,1.7,1.7
	S141.2,74.6,140.3,74.6z"/>
<path class="st5" d="M1.7,52.6v-7.8c0-3,2.4-5.4,5.4-5.4h27.4c3,0,5.4,2.4,5.4,5.4v64.4c0,3-2.4,5.4-5.4,5.4H7c-3,0-5.4-2.4-5.4-5.4
	L1.7,52.6L1.7,52.6z"/>
<path class="st2" d="M1.7,50H40v48.9H1.7V50z"/>
<path class="st6" d="M32.5,50.4h7.4v-6.8c0-2.2-1.8-4-4-4h-3.4L32.5,50.4L32.5,50.4z M32.5,114.6h1.9c3,0,5.5-2.5,5.5-5.5v-9.5
	c0-0.4-0.3-0.7-0.7-0.7h-6.7V114.6z"/>
<path class="st1" d="M32.5,50.4h7.4v48.5h-7.4V50.4z"/>
<path class="st6" d="M18.4,108.9c1.3,1.3,3.4,1.3,4.7,0c1.3-1.3,1.3-3.4,0-4.7s-3.4-1.3-4.7,0C17.1,105.5,17.1,107.6,18.4,108.9
	L18.4,108.9z"/>
<path class="st4" d="M39.6,51.6H1.9c-0.9,0-1.7-0.7-1.7-1.7s0.7-1.7,1.7-1.7h37.8c0.9,0,1.7,0.7,1.7,1.7S40.6,51.6,39.6,51.6z
	 M39.6,100.5H1.9c-0.9,0-1.7-0.7-1.7-1.7c0-0.9,0.7-1.7,1.7-1.7h37.8c0.9,0,1.7,0.7,1.7,1.7S40.6,100.5,39.6,100.5z M20.8,111.5
	c-2.7,0-4.9-2.2-4.9-4.9s2.2-5,4.9-5s5,2.2,5,5S23.5,111.5,20.8,111.5z M20.8,104.8c-0.9,0-1.7,0.7-1.7,1.7c0,0.9,0.7,1.7,1.7,1.7
	c0.9,0,1.7-0.7,1.7-1.7C22.4,105.6,21.7,104.8,20.8,104.8z"/>
<path class="st4" d="M34.5,116.2H7c-3.9,0-7-3.2-7-7V44.8c0-3.9,3.1-7,7-7h27.4c3.9,0,7,3.2,7,7v64.4
	C41.5,113.1,38.3,116.2,34.5,116.2z M7,41c-2.1,0-3.7,1.7-3.7,3.7v64.4c0,2.1,1.7,3.7,3.7,3.7h27.4c2.1,0,3.7-1.7,3.7-3.7V44.8
	c0-2.1-1.7-3.7-3.7-3.7L7,41L7,41z"/>
</svg>
