<?xml version="1.0" encoding="utf-8"?>
<!-- Generator: Adobe Illustrator 23.0.1, SVG Export Plug-In . SVG Version: 6.00 Build 0)  -->
<svg version="1.1" id="图层_1" xmlns="http://www.w3.org/2000/svg" xmlns:xlink="http://www.w3.org/1999/xlink" x="0px" y="0px"
	 viewBox="0 0 132 144" style="enable-background:new 0 0 132 144;" xml:space="preserve">
<style type="text/css">
	.st0{fill:#50C28B;}
	.st1{fill:#FEFEFE;}
	.st2{fill:#318459;}
	.st3{fill:#91DBB1;}
</style>
<path class="st0" d="M132,136.2c0,4.2-3.6,7.8-8.4,7.8H8.4c-4.8,0-8.4-3.6-8.4-7.8V7.8C0,3.6,3.6,0,8.4,0H102v14.4L115.2,30H132
	V136.2z"/>
<path class="st1" d="M30,126h72V54H30V126z"/>
<path class="st2" d="M102,0v12.6c0,1.2,3,16.2,4.8,17.4L132,48V30L102,0z"/>
<path class="st3" d="M102,0v24c0,3.6,3,6,6,6h24C132,30,102,0,102,0z"/>
<path class="st0" d="M42,108h6.6V78l13.2,18h7.8L84,78v30h6V72h-9L66,90.6L51,72h-9V108z"/>
</svg>
