<?xml version="1.0" standalone="no"?><!DOCTYPE svg PUBLIC "-//W3C//DTD SVG 1.1//EN" "http://www.w3.org/Graphics/SVG/1.1/DTD/svg11.dtd"><svg t="1564020680391" class="icon" viewBox="0 0 1024 1024" version="1.1" xmlns="http://www.w3.org/2000/svg" p-id="17244" xmlns:xlink="http://www.w3.org/1999/xlink" width="144" height="144"><defs><style type="text/css"></style></defs><path d="M409.6 597.333v-166.4h0.58a38.298 38.298 0 0 0-0.58 6.4c0-41.591 65.911-77.687 162.714-96H61.577A61.577 61.577 0 0 0 0 402.91v201.096A61.577 61.577 0 0 0 61.577 665.6H409.6v-68.267z" fill="#424A60" p-id="17245"></path><path d="M410.18 904.533h-0.58V665.6H61.577A61.577 61.577 0 0 0 0 727.177v201.096a61.577 61.577 0 0 0 61.577 61.594h490.12c-80.64-18.245-135.646-49.442-141.517-85.334z m518.11-563.2H61.577A61.594 61.594 0 0 1 0 279.757V78.643a61.594 61.594 0 0 1 61.577-61.576h866.696a61.594 61.594 0 0 1 61.594 61.576V279.74a61.594 61.594 0 0 1-61.577 61.593z" fill="#556080" p-id="17246"></path><path d="M102.4 179.2a59.733 59.733 0 1 0 119.467 0 59.733 59.733 0 1 0-119.467 0zM819.2 153.6a17.067 17.067 0 1 0 34.133 0 17.067 17.067 0 1 0-34.133 0zM750.933 153.6a17.067 17.067 0 1 0 34.134 0 17.067 17.067 0 1 0-34.134 0zM853.333 204.8a17.067 17.067 0 1 0 34.134 0 17.067 17.067 0 1 0-34.134 0zM785.067 204.8a17.067 17.067 0 1 0 34.133 0 17.067 17.067 0 1 0-34.133 0zM682.667 153.6a17.067 17.067 0 1 0 34.133 0 17.067 17.067 0 1 0-34.133 0zM716.8 204.8a17.067 17.067 0 1 0 34.133 0 17.067 17.067 0 1 0-34.133 0zM614.4 153.6a17.067 17.067 0 1 0 34.133 0 17.067 17.067 0 1 0-34.133 0zM648.533 204.8a17.067 17.067 0 1 0 34.134 0 17.067 17.067 0 1 0-34.134 0zM546.133 153.6a17.067 17.067 0 1 0 34.134 0 17.067 17.067 0 1 0-34.134 0zM580.267 204.8a17.067 17.067 0 1 0 34.133 0 17.067 17.067 0 1 0-34.133 0zM102.4 503.467a59.733 59.733 0 1 0 119.467 0 59.733 59.733 0 1 0-119.467 0zM102.4 827.733a59.733 59.733 0 1 0 119.467 0 59.733 59.733 0 1 0-119.467 0z" fill="#7383BF" p-id="17247"></path><path d="M716.8 832c-169.66 0-307.2-48.708-307.2-108.8v181.333h0.58c9.353 57.105 143.036 102.4 306.62 102.4s297.267-45.295 306.62-102.4h0.58V723.2c0 60.092-137.54 108.8-307.2 108.8zM409.6 716.8v6.4c0-2.15 0.222-4.284 0.58-6.4h-0.58z m613.82 0c0.358 2.116 0.58 4.25 0.58 6.4v-6.4h-0.58z" fill="#1A9172" p-id="17248"></path><path d="M716.8 648.533c-169.66 0-307.2-48.708-307.2-108.8V729.6h0.58C419.533 786.705 553.216 832 716.8 832s297.267-45.295 306.62-102.4h0.58V539.733c0 60.092-137.54 108.8-307.2 108.8z m-307.2-115.2v6.4c0-2.15 0.222-4.283 0.58-6.4h-0.58z m613.82 0c0.358 2.117 0.58 4.25 0.58 6.4v-6.4h-0.58z" fill="#25AE88" p-id="17249"></path><path d="M409.6 364.8a307.2 108.8 0 1 0 614.4 0 307.2 108.8 0 1 0-614.4 0z" fill="#88C057" p-id="17250"></path><path d="M716.8 473.6c-169.66 0-307.2-48.708-307.2-108.8v181.333h0.58c9.353 57.105 143.036 102.4 306.62 102.4s297.267-45.295 306.62-102.4h0.58V364.8c0 60.092-137.54 108.8-307.2 108.8zM409.6 358.4v6.4c0-2.15 0.222-4.284 0.58-6.4h-0.58z m613.82 0c0.358 2.116 0.58 4.25 0.58 6.4v-6.4h-0.58z" fill="#61B872" p-id="17251"></path></svg>