<?xml version="1.0" encoding="utf-8"?>
<!-- Generator: Adobe Illustrator 23.0.1, SVG Export Plug-In . SVG Version: 6.00 Build 0)  -->
<svg version="1.1" id="图层_1" xmlns="http://www.w3.org/2000/svg" xmlns:xlink="http://www.w3.org/1999/xlink" x="0px" y="0px"
	 viewBox="0 0 48 48" style="enable-background:new 0 0 48 48;" xml:space="preserve">
<style type="text/css">
	.st0{fill:#FFFFFF;}
	.st1{fill:#D32E2D;}
</style>
<rect x="2" y="17" class="st0" width="44" height="14"/>
<path class="st1" d="M16.06,15v15.98H0.08V15H16.06z M2.75,17.65v10.66h5.32v-7.99h2.67v7.99h2.67V17.65H2.75z"/>
<path class="st1" d="M29.37,15v15.98h-5.32v2.67H13.39V15H29.37z M16.06,17.65v13.31h5.32v-2.65h5.32V17.65H16.06z M21.38,20.32
	h2.67v5.32h-2.67V20.32z"/>
<path class="st1" d="M26.7,30.96V15H48v15.98H26.7V30.96z M29.37,17.65v10.66h5.32v-7.99h2.67v7.99h2.67v-7.99h2.67v7.99h2.67V17.65
	H29.37z"/>
</svg>
