<?xml version="1.0" encoding="utf-8"?>
<!-- Generator: Adobe Illustrator 23.0.1, SVG Export Plug-In . SVG Version: 6.00 Build 0)  -->
<svg version="1.1" id="图层_1" xmlns="http://www.w3.org/2000/svg" xmlns:xlink="http://www.w3.org/1999/xlink" x="0px" y="0px"
	 viewBox="0 0 117.8 142.9" style="enable-background:new 0 0 117.8 142.9;" xml:space="preserve">
<style type="text/css">
	.st0{fill:#4988FD;}
	.st1{fill:#2767F4;}
	.st2{fill:#DFECFD;}
	.st3{fill:#C5DCFA;}
</style>
<path class="st0" d="M109.2,142.9H8.6c-4.7,0-8.6-3.8-8.6-8.6V8.6C0,3.9,3.8,0,8.6,0h100.6c4.7,0,8.6,3.8,8.6,8.6v125.7
	C117.8,139,114,142.9,109.2,142.9z"/>
<path class="st1" d="M83.8,42.7H12c-2.6,0-4.9-2.2-4.9-4.9V14.4c0-2.6,2.2-4.9,4.9-4.9h93.8c2.6,0,4.9,2.2,4.9,4.9v23.4
	c0,2.6-2.2,4.9-4.9,4.9h-12"/>
<path class="st2" d="M110.7,59.5v66.9c0,4.2-3.4,7.6-7.6,7.6H14.8c-4.2,0-7.6-3.4-7.6-7.6V59.5c0-4.2,3.4-7.6,7.6-7.6h88.3
	C107.3,51.7,110.7,55.2,110.7,59.5z"/>
<path class="st3" d="M110.7,91.3v3.1H60.5V134h-3.1V94.4H7.2v-3.1h50.3V51.7h3.1v39.6H110.7z"/>
<path class="st1" d="M33.2,82.8c-0.9,0-1.6-0.7-1.6-1.6V65.1c0-0.9,0.7-1.6,1.6-1.6c0.9,0,1.6,0.7,1.6,1.6v16.1
	C34.8,82.1,34.1,82.8,33.2,82.8z"/>
<path class="st1" d="M41.2,74.7H25.2c-0.9,0-1.6-0.7-1.6-1.6c0-0.9,0.7-1.6,1.6-1.6h16.1c0.9,0,1.6,0.7,1.6,1.6
	C42.8,74.1,42.1,74.7,41.2,74.7z"/>
<path class="st1" d="M27.5,121.5c-0.4,0-0.8-0.2-1.1-0.5c-0.6-0.6-0.6-1.6,0-2.3l11.4-11.4c0.6-0.6,1.6-0.6,2.3,0
	c0.6,0.6,0.6,1.6,0,2.3L28.7,121C28.3,121.3,27.9,121.5,27.5,121.5z"/>
<path class="st1" d="M38.9,121.5c-0.4,0-0.8-0.2-1.1-0.5l-11.4-11.4c-0.6-0.6-0.6-1.6,0-2.3c0.6-0.6,1.6-0.6,2.3,0l11.4,11.4
	c0.6,0.6,0.6,1.6,0,2.3C39.7,121.3,39.3,121.5,38.9,121.5z"/>
<path class="st1" d="M93.5,74.7H77.4c-0.9,0-1.6-0.7-1.6-1.6c0-0.9,0.7-1.6,1.6-1.6h16.1c0.9,0,1.6,0.7,1.6,1.6
	C95,74.1,94.3,74.7,93.5,74.7z M93.5,111.6H77.4c-0.9,0-1.6-0.7-1.6-1.6c0-0.9,0.7-1.6,1.6-1.6h16.1c0.9,0,1.6,0.7,1.6,1.6
	C95,110.9,94.3,111.6,93.5,111.6z M93.5,119.7H77.4c-0.9,0-1.6-0.7-1.6-1.6c0-0.9,0.7-1.6,1.6-1.6h16.1c0.9,0,1.6,0.7,1.6,1.6
	C95,119,94.3,119.7,93.5,119.7z"/>
<path class="st2" d="M86.7,38.1h-1.2c-2.1,0-3.7-1.7-3.7-3.7v-0.2l0.9-5.7c0.1-0.9,1-1.5,1.8-1.3c0.9,0.1,1.5,1,1.3,1.8l-0.9,5.5
	c0,0.3,0.3,0.5,0.6,0.5h1.2c0.9,0,1.6,0.7,1.6,1.6C88.2,37.4,87.6,38.1,86.7,38.1z M93.5,38.1h-1.4c-0.9,0-1.6-0.7-1.6-1.6
	c0-0.9,0.7-1.6,1.6-1.6h1.4c0.3,0,0.6-0.3,0.6-0.6v-0.2l0.8-4.9c0.1-0.9,1-1.5,1.8-1.3c0.9,0.1,1.5,1,1.3,1.8l-0.8,4.8
	C97.2,36.4,95.5,38.1,93.5,38.1z M97.3,25.6h-0.2c-0.9-0.1-1.5-1-1.3-1.8l0.7-4.4c0-0.3-0.3-0.5-0.6-0.5h-1.2
	c-0.9,0-1.6-0.7-1.6-1.6c0-0.9,0.7-1.6,1.6-1.6h1.2c2.1,0,3.7,1.7,3.7,3.7v0.2l-0.7,4.6C98.7,25,98.1,25.6,97.3,25.6L97.3,25.6z
	 M85,24.8h-0.2c-0.9-0.1-1.5-1-1.3-1.8l0.6-3.7c0.1-2,1.8-3.6,3.7-3.6h1.3c0.9,0,1.6,0.7,1.6,1.6s-0.7,1.6-1.6,1.6h-1.3
	c-0.3,0-0.6,0.3-0.6,0.6v0.2l-0.6,3.8C86.5,24.2,85.8,24.8,85,24.8z"/>
</svg>
