<?xml version="1.0" encoding="utf-8"?>
<!-- Generator: Adobe Illustrator 23.0.1, SVG Export Plug-In . SVG Version: 6.00 Build 0)  -->
<svg version="1.1" id="图层_1" xmlns="http://www.w3.org/2000/svg" xmlns:xlink="http://www.w3.org/1999/xlink" x="0px" y="0px"
	 viewBox="0 0 138.5 144" style="enable-background:new 0 0 138.5 144;" xml:space="preserve">
<style type="text/css">
	.st0{fill:#22234C;}
	.st1{fill:#FFFFFF;}
	.st2{fill:#6CB692;}
	.st3{fill:#261D50;}
	.st4{fill:#00B7D6;}
</style>
<path class="st0" d="M2.7,138.6h4.7c1.5,0,2.7,1.2,2.7,2.7S8.9,144,7.4,144H2.7c-1.5,0-2.7-1.2-2.7-2.7S1.2,138.6,2.7,138.6z
	 M126.4,138.6h9.4c1.5,0,2.7,1.2,2.7,2.7s-1.2,2.7-2.7,2.7l0,0h-9.4c-1.5,0-2.7-1.2-2.7-2.7C123.7,139.8,124.9,138.6,126.4,138.6z
	 M115.4,138.6h-0.9c-1.6,2.3-4.2,3.7-7,3.7H52.9c-2.8,0-5.4-1.4-7-3.7H18.3c-1.5,0-2.7,1.2-2.7,2.7c0,0,0,0.1,0,0.1
	c0.1,1.5,1.3,2.6,2.8,2.6h97c1.5,0,2.7-1.2,2.7-2.7c0,0,0-0.1,0-0.1C118.1,139.7,116.8,138.6,115.4,138.6z"/>
<path class="st1" d="M45.4,1.3h69.8v140H45.4C45.4,141.3,45.4,1.3,45.4,1.3z"/>
<path class="st1" d="M21.7,63.4h17.8v69.9H21.7c-4.6,0-8.4-3.8-8.4-8.4V71.8C13.3,67.2,17,63.4,21.7,63.4z"/>
<path class="st2" d="M23.6,129.2c-2.4,0-4.3-1.9-4.3-4.3c0-2.4,1.9-4.3,4.3-4.3h8.1V63.4H21.7c-4.6,0-8.4,3.7-8.4,8.3v53.8
	c0,4.6,3.8,8.3,8.4,8.3h10.1v-4.5H23.6z"/>
<path class="st3" d="M39.5,134.6H21.7c-5.4,0-9.7-4.4-9.7-9.7V71.7c0-5.4,4.4-9.7,9.7-9.7h17.8v2.7H21.7c-3.9,0-7.1,3.2-7.1,7.1
	v53.1c0,3.9,3.2,7.1,7.1,7.1h0h17.8V134.6z"/>
<path class="st3" d="M38.6,129.7h-15c-2.6,0-4.8-2.1-4.8-4.8s2.1-4.8,4.8-4.8h15v2.7h-15c-1.2,0-2.1,0.9-2.1,2.1
	c0,1.2,0.9,2.1,2.1,2.1h15V129.7z"/>
<path class="st4" d="M105.5,6.9h-6c0.5,2.7-1.4,5.3-4.1,5.8c-0.3,0-0.6,0.1-0.8,0.1H66c-2.8,0-5-2.3-5-5c0-0.3,0-0.6,0.1-0.8h-6.2
	c-1.9,0-3.4,1.5-3.4,3.4v97.6l57.5-73.6v-24C108.9,8.4,107.4,6.9,105.5,6.9C105.5,6.9,105.5,6.9,105.5,6.9z M108.9,45.4L51.4,119
	v12.6L108.9,58C108.9,58,108.9,45.4,108.9,45.4z M74.8,135.8h30.7c1.9,0,3.4-1.5,3.4-3.4c0,0,0,0,0,0V92.2L74.8,135.8z"/>
<path class="st1" d="M58.7,20c0.7,0,1.3,0.6,1.3,1.3l0,0v10.8c0,0.7-0.6,1.3-1.3,1.3c-0.7,0-1.3-0.6-1.3-1.3V21.3
	C57.3,20.6,57.9,20,58.7,20L58.7,20z M58.7,15c0.7,0,1.3,0.6,1.3,1.3c0,0.7-0.6,1.3-1.3,1.3c-0.7,0-1.3-0.6-1.3-1.3
	C57.3,15.6,57.9,15,58.7,15z M65.9,1.3h28.6c2.8,0,5,2.3,5,5c0,2.8-2.3,5-5,5H65.9c-2.8,0-5-2.3-5-5S63.1,1.3,65.9,1.3z"/>
<path class="st3" d="M94.4,12.8H65.9c-3.5,0-6.4-2.9-6.4-6.4c0-3.5,2.9-6.4,6.4-6.4h28.6c3.5,0,6.4,2.9,6.4,6.4
	C100.8,9.9,98,12.8,94.4,12.8z M65.9,2.7c-2,0-3.7,1.7-3.7,3.7c0,2,1.7,3.7,3.7,3.7h28.6c2,0,3.7-1.7,3.7-3.7c0-2-1.7-3.7-3.7-3.7
	L65.9,2.7z"/>
<path class="st3" d="M106.7,142.8H53.8c-5.4,0-9.7-4.4-9.7-9.7V58.4c0-0.7,0.6-1.3,1.3-1.3c0.7,0,1.3,0.6,1.3,1.3l0,0v74.7
	c0,3.9,3.2,7.1,7.1,7.1l0,0h52.9c3.9,0,7.1-3.2,7.1-7.1c0,0,0,0,0,0V9.7c0-3.9-3.2-7.1-7.1-7.1l0,0H53.8c-3.9,0-7.1,3.2-7.1,7.1
	v26.8c0,0.7-0.6,1.3-1.3,1.3c-0.7,0-1.3-0.6-1.3-1.3V9.7C44,4.4,48.4,0,53.8,0h52.9c5.4,0,9.7,4.4,9.7,9.7v123.3
	C116.4,138.5,112.1,142.8,106.7,142.8z M45.4,54.5c-0.7,0-1.3-0.6-1.3-1.3l0,0V42.7c0-0.7,0.6-1.3,1.3-1.3c0.7,0,1.3,0.6,1.3,1.3
	l0,0v10.4C46.7,53.9,46.1,54.5,45.4,54.5L45.4,54.5z"/>
<path class="st3" d="M104.7,5h-5.4c0.2,0.9,0.2,1.8,0,2.7h5.4c1.9,0,3.4,1.5,3.4,3.4c0,0,0,0,0,0v120.5c0,1.9-1.5,3.4-3.4,3.4
	c0,0,0,0,0,0H55.6c-1.9,0-3.4-1.5-3.4-3.4l0,0V11.1c0-1.9,1.5-3.4,3.4-3.4H61c-0.2-0.9-0.2-1.8,0-2.7h-5.4c-3.3,0-6,2.7-6,6l0,0
	v120.5c0,3.3,2.7,6,6,6h0h49.1c3.3,0,6-2.7,6-6V11.1C110.7,7.7,108,5,104.7,5z"/>
</svg>
