<?xml version="1.0" standalone="no"?><!DOCTYPE svg PUBLIC "-//W3C//DTD SVG 1.1//EN" "http://www.w3.org/Graphics/SVG/1.1/DTD/svg11.dtd"><svg class="icon" width="144px" height="144.00px" viewBox="0 0 1024 1024" version="1.1" xmlns="http://www.w3.org/2000/svg"><path d="M512 512m-414 0a414 414 0 1 0 828 0 414 414 0 1 0-828 0Z" fill="#F0C48A" /><path d="M938.2 716h-732c-40.8 0-74-33.2-74-74V185.2c0-40.8 33.2-74 74-74h732c40.8 0 74 33.2 74 74V642c0 41-33 74-74 74z" fill="#D3E6F8" /><path d="M132.4 616.6V642c0 40.8 33.2 74 74 74h732c40.8 0 74-33.2 74-74v-25.4h-880zM478.2 716h188.4v125.8h-188.4zM785.4 912.8H359.2v-35.2c0-19.8 16-35.8 35.8-35.8h354.6c19.8 0 35.8 16 35.8 35.8v35.2z" fill="#FFFFFF" /><path d="M709.4 912.8h76v-35.2c0-19.8-16-35.8-35.8-35.8h-40.2v71zM936.2 720.6c42 0 76-34 76-76v-33.8h-76v109.8z" fill="#D3E6F8" /><path d="M936.2 111.2c42 0 76 34 76 76v429.4h-76V111.2z" fill="#A4CFF2" /><path d="M621.6 716h44.8v122.8h-44.8z" fill="#D3E6F8" /><path d="M938.2 727.8h-732c-47.2 0-85.8-38.4-85.8-85.8V185.2c0-47.2 38.4-85.8 85.8-85.8h732c47.2 0 85.8 38.4 85.8 85.8V642c0 47.4-38.4 85.8-85.8 85.8zM206.4 122.8C172 122.8 144 150.8 144 185.2V642c0 34.4 28 62.2 62.2 62.2h732c34.4 0 62.2-28 62.2-62.2V185.2c0-34.4-28-62.2-62.2-62.2H206.4z" fill="#4C4372" /><path d="M666.4 853.6H478c-6.4 0-11.8-5.2-11.8-11.8V716c0-6.4 5.2-11.8 11.8-11.8h188.4c6.4 0 11.8 5.2 11.8 11.8v125.8c0 6.6-5.2 11.8-11.8 11.8z m-176.6-23.4h164.8v-102.4h-164.8v102.4z" fill="#4C4372" /><path d="M785.4 924.6H359.2c-6.4 0-11.8-5.2-11.8-11.8v-35.2c0-26.2 21.4-47.6 47.6-47.6h354.6c26.2 0 47.6 21.4 47.6 47.6v35.2c-0.2 6.6-5.4 11.8-11.8 11.8z m-414.4-23.4h402.6v-23.4c0-13.2-10.8-24-24-24H395c-13.2 0-24 10.8-24 24v23.4zM997.8 628.4H137.4c-6.4 0-11.8-5.2-11.8-11.8s5.2-11.8 11.8-11.8h860.2c6.4 0 11.8 5.2 11.8 11.8s-5.2 11.8-11.6 11.8z" fill="#4C4372" /><path d="M11.8 472v-55.6c0-21 17.2-38.4 38.4-38.4h194.8c21 0 38.4 17.2 38.4 38.4v458.2c0 21-17.2 38.4-38.4 38.4H50c-21 0-38.4-17.2-38.4-38.4V472z" fill="#FD919E" /><path d="M11.8 453.2h272.6v348H11.8z" fill="#FFFFFF" /><path d="M230.8 456.2h52.6V408c0-15.8-12.8-28.4-28.4-28.4h-24v76.6zM230.8 912.8h13.4c21.6 0 39.2-17.6 39.2-39.2V806c0-2.6-2.2-4.8-4.8-4.8h-47.8v111.6z" fill="#E8677D" /><path d="M230.8 456.2h52.6v344.8h-52.6z" fill="#D3E6F8" /><path d="M130.834569 872.055703a23.6 23.6 0 1 0 33.374858-33.376023 23.6 23.6 0 1 0-33.374858 33.376023Z" fill="#E8677D" /><path d="M281.8 464.8H13.2c-6.4 0-11.8-5.2-11.8-11.8s5.2-11.8 11.8-11.8h268.6c6.4 0 11.8 5.2 11.8 11.8s-5.2 11.8-11.8 11.8zM281.8 812.8H13.2c-6.4 0-11.8-5.2-11.8-11.8 0-6.4 5.2-11.8 11.8-11.8h268.6c6.4 0 11.8 5.2 11.8 11.8 0 6.6-5.2 11.8-11.8 11.8zM147.6 890.8c-19.4 0-35.2-15.8-35.2-35.2s15.8-35.2 35.2-35.2c19.4 0 35.2 15.8 35.2 35.2s-15.8 35.2-35.2 35.2z m0-47.2c-6.4 0-11.8 5.2-11.8 11.8 0 6.4 5.2 11.8 11.8 11.8 6.4 0 11.8-5.2 11.8-11.8 0-6.4-5.4-11.8-11.8-11.8z" fill="#4C4372" /><path d="M245 924.6H50c-27.6 0-50-22.4-50-50V416.4c0-27.6 22.4-50 50-50h194.8c27.6 0 50 22.4 50 50v458.2c0.2 27.4-22.2 50-49.8 50zM50 389.6c-14.6 0-26.6 12-26.6 26.6v458.2c0 14.6 12 26.6 26.6 26.6h194.8c14.6 0 26.6-12 26.6-26.6v-458c0-14.6-12-26.6-26.6-26.6H50z" fill="#4C4372" /></svg>