<?xml version="1.0" encoding="utf-8"?>
<!-- Generator: Adobe Illustrator 23.0.1, SVG Export Plug-In . SVG Version: 6.00 Build 0)  -->
<svg version="1.1" id="图层_1" xmlns="http://www.w3.org/2000/svg" xmlns:xlink="http://www.w3.org/1999/xlink" x="0px" y="0px"
	 viewBox="0 0 112.9 87.8" style="enable-background:new 0 0 112.9 87.8;" xml:space="preserve">
<style type="text/css">
	.st0{fill:#98DCF0;}
	.st1{fill:#699B54;}
	.st2{fill:#80BB67;}
	.st3{fill:#FFE68E;}
</style>
<path class="st0" d="M106.6,0H6.3C2.8,0,0,2.8,0,6.3l0,0v60.6h112.9V6.3C112.9,2.8,110.1,0,106.6,0z"/>
<path class="st1" d="M70.2,41.8L48.4,66.9H92L70.2,41.8z"/>
<path class="st2" d="M66.4,66.9l-29-33.5l-29,33.5H0v14.6c0,3.5,2.8,6.3,6.3,6.3c0,0,0,0,0,0h100.3c3.5,0,6.3-2.8,6.3-6.3V66.9
	C112.9,66.9,66.4,66.9,66.4,66.9z"/>
<path class="st3" d="M83.6,20.9c0,4.6,3.7,8.4,8.4,8.4c4.6,0,8.4-3.7,8.4-8.4v0c0-4.6-3.7-8.4-8.4-8.4
	C87.4,12.5,83.6,16.3,83.6,20.9L83.6,20.9z"/>
</svg>
