<?xml version="1.0" standalone="no"?><!DOCTYPE svg PUBLIC "-//W3C//DTD SVG 1.1//EN" "http://www.w3.org/Graphics/SVG/1.1/DTD/svg11.dtd"><svg t="1561086538094" class="icon" viewBox="0 0 1024 1024" version="1.1" xmlns="http://www.w3.org/2000/svg" p-id="3902" xmlns:xlink="http://www.w3.org/1999/xlink" width="144" height="144"><defs><style type="text/css"></style></defs><path d="M523.618977 512.001m-489.999043 0a489.999043 489.999043 0 1 0 979.998086 0 489.999043 489.999043 0 1 0-979.998086 0Z" fill="#1A2B63" p-id="3903"></path><path d="M1010.496026 264.917483H532.048961v185.115638c0 5.499989-4.499991 9.99998-9.999981 9.99998h-65.041873v180.167649c0 7.427985 6.077988 13.501974 13.499974 13.501973h539.988945c7.425985 0 13.501974-6.075988 13.501974-13.501973V278.417456c0-7.425985-6.075988-13.499974-13.501974-13.499973z" fill="#91E0E8" p-id="3904"></path><path d="M496.69303 640.20075v-180.169648h-39.683923v180.169648c0 7.427985 6.077988 13.501974 13.499974 13.501973h39.683923c-7.421986 0.002-13.499974-6.073988-13.499974-13.501973z" fill="#5DC1D8" p-id="3905"></path><path d="M894.500253 476.29907c-4.785991-5.675989-12.615975-5.675989-17.401966 0l-70.179863 83.269837c-4.787991 5.675989-12.617975 5.675989-17.401966 0l-132.473741-157.157693c-4.785991-5.681989-12.615975-5.681989-17.401966 0l-182.631644 216.661577v21.127959c0 7.427985 6.077988 13.501974 13.499974 13.501973H1010.498026c7.425985 0 13.501974-6.075988 13.501974-13.501973v-10.27598l-129.499747-153.6257z" fill="#0F9390" p-id="3906"></path><path d="M929.398185 365.381286m-50.623901 0a50.623901 50.623901 0 1 0 101.247802 0 50.623901 50.623901 0 1 0-101.247802 0Z" fill="#FFFFFF" p-id="3907"></path><path d="M906.750229 365.377286c0-23.107955 15.48597-42.583917 36.639928-48.653905a50.649901 50.649901 0 0 0-13.983972-1.971996c-27.955945 0-50.619901 22.663956-50.619901 50.625901s22.663956 50.625901 50.619901 50.625901a50.639901 50.639901 0 0 0 13.983972-1.971996c-21.153959-6.069988-36.639928-25.54395-36.639928-48.653905z" fill="#D9EAFC" p-id="3908"></path><path d="M534.048957 452.033117c0 5.499989-4.499991 9.99998-9.999981 9.999981H9.99998c-5.499989 0-9.99998-4.499991-9.99998-9.999981V59.997883c0-5.499989 4.499991-9.99998 9.99998-9.999981h514.048996c5.499989 0 9.99998 4.499991 9.999981 9.999981v392.035234z" fill="#FE3745" p-id="3909"></path><path d="M164.991678 158.199691c0-10.999979 7.793985-15.49997 17.319966-9.99998l169.425669 97.815809c9.525981 5.499989 9.525981 14.499972 0 19.99996l-169.425669 97.817809c-9.525981 5.499989-17.319966 0.999998-17.319966-9.99998V158.199691z" fill="#FFFFFF" p-id="3910"></path><path d="M204.6756 161.111685L182.311644 148.199711c-9.525981-5.499989-17.319966-0.999998-17.319966 9.99998v195.633618c0 10.999979 7.793985 15.49997 17.319966 9.99998l22.363956-12.911974V161.111685z" fill="#D9EAFC" p-id="3911"></path><path d="M503.013018 127.021752c0 3.299994-2.699995 5.999988-5.999989 5.999988h-41.997918c-3.299994 0-5.999988-2.699995-5.999988-5.999988V85.025834c0-3.299994 2.699995-5.999988 5.999988-5.999988h41.997918c3.299994 0 5.999988 2.699995 5.999989 5.999988v41.995918zM503.013018 202.017605c0 3.299994-2.699995 5.999988-5.999989 5.999989h-41.997918c-3.299994 0-5.999988-2.699995-5.999988-5.999989V160.021687c0-3.299994 2.699995-5.999988 5.999988-5.999988h41.997918c3.299994 0 5.999988 2.699995 5.999989 5.999988v41.995918zM503.013018 277.013459c0 3.299994-2.699995 5.999988-5.999989 5.999988h-41.997918c-3.299994 0-5.999988-2.699995-5.999988-5.999988v-41.995918c0-3.299994 2.699995-5.999988 5.999988-5.999988h41.997918c3.299994 0 5.999988 2.699995 5.999989 5.999988v41.995918zM503.013018 352.009312c0 3.299994-2.699995 5.999988-5.999989 5.999989h-41.997918c-3.299994 0-5.999988-2.699995-5.999988-5.999989v-41.995917c0-3.299994 2.699995-5.999988 5.999988-5.999989h41.997918c3.299994 0 5.999988 2.699995 5.999989 5.999989v41.995917zM503.013018 427.005166c0 3.299994-2.699995 5.999988-5.999989 5.999988h-41.997918c-3.299994 0-5.999988-2.699995-5.999988-5.999988v-41.995918c0-3.299994 2.699995-5.999988 5.999988-5.999988h41.997918c3.299994 0 5.999988 2.699995 5.999989 5.999988v41.995918zM85.033834 127.021752c0 3.299994-2.699995 5.999988-5.999988 5.999988H37.037928c-3.299994 0-5.999988-2.699995-5.999989-5.999988V85.025834c0-3.299994 2.699995-5.999988 5.999989-5.999988h41.995918c3.299994 0 5.999988 2.699995 5.999988 5.999988v41.995918zM85.033834 202.017605c0 3.299994-2.699995 5.999988-5.999988 5.999989H37.037928c-3.299994 0-5.999988-2.699995-5.999989-5.999989V160.021687c0-3.299994 2.699995-5.999988 5.999989-5.999988h41.995918c3.299994 0 5.999988 2.699995 5.999988 5.999988v41.995918zM85.033834 277.013459c0 3.299994-2.699995 5.999988-5.999988 5.999988H37.037928c-3.299994 0-5.999988-2.699995-5.999989-5.999988v-41.995918c0-3.299994 2.699995-5.999988 5.999989-5.999988h41.995918c3.299994 0 5.999988 2.699995 5.999988 5.999988v41.995918zM85.033834 352.009312c0 3.299994-2.699995 5.999988-5.999988 5.999989H37.037928c-3.299994 0-5.999988-2.699995-5.999989-5.999989v-41.995917c0-3.299994 2.699995-5.999988 5.999989-5.999989h41.995918c3.299994 0 5.999988 2.699995 5.999988 5.999989v41.995917zM85.033834 427.005166c0 3.299994-2.699995 5.999988-5.999988 5.999988H37.037928c-3.299994 0-5.999988-2.699995-5.999989-5.999988v-41.995918c0-3.299994 2.699995-5.999988 5.999989-5.999988h41.995918c3.299994 0 5.999988 2.699995 5.999988 5.999988v41.995918z" fill="#B7092B" p-id="3912"></path><path d="M411.891196 509.911004H64.079875c-5.499989 0-9.99998 4.499991-9.999981 9.999981v132.491741a487.769047 487.769047 0 0 0 60.473882 129.369747h126.157754l81.553841 81.553841c3.889992 3.889992 7.071986 2.571995 7.071986-2.927994v-78.625847h82.555839c5.499989 0 9.99998-4.499991 9.99998-9.99998V519.910985c-0.002-5.499989-4.501991-9.99998-10.00198-9.999981z" fill="#52BBEF" p-id="3913"></path><path d="M93.763817 519.910985c0-5.499989 4.499991-9.99998 9.99998-9.999981H64.079875c-5.499989 0-9.99998 4.499991-9.999981 9.999981v132.491741a486.961049 486.961049 0 0 0 39.683923 94.867814v-227.359555z" fill="#1E99D6" p-id="3914"></path><path d="M337.241341 609.33281H138.725729a14.999971 14.999971 0 0 1 0-29.999942h198.515612a14.999971 14.999971 0 0 1 0 29.999942zM337.241341 661.556708H138.725729a14.999971 14.999971 0 0 1 0-29.999942h198.515612a14.999971 14.999971 0 0 1 0 29.999942zM238.379534 713.778606H138.725729a14.999971 14.999971 0 0 1 0-29.999942h99.653805a14.999971 14.999971 0 0 1 0 29.999942z" fill="#FFFFFF" p-id="3915"></path><path d="M783.21847 705.114623H468.009086c-5.499989 0-9.99998 4.499991-9.999981 9.99998v238.625534c0 5.499989 4.499991 9.99998 9.999981 9.999981H713.758606a488.579046 488.579046 0 0 0 79.459845-42.543917v-206.079598c0-5.501989-4.499991-10.00198-9.999981-10.00198z" fill="#EF8318" p-id="3916"></path><path d="M497.693028 953.738137V715.114603c0-5.499989 4.499991-9.99998 9.99998-9.99998h-39.683922c-5.499989 0-9.99998 4.499991-9.999981 9.99998v238.625534c0 5.499989 4.499991 9.99998 9.999981 9.999981h39.683922c-5.499989-0.002-9.99998-4.501991-9.99998-10.001981z" fill="#DB722C" p-id="3917"></path><path d="M570.048887 780.474476c0-10.999979 7.793985-15.49997 17.319966-9.999981l93.447817 53.951895c9.525981 5.499989 9.525981 14.499972 0 19.999961l-93.447817 53.951894c-9.525981 5.499989-17.319966 0.999998-17.319966-9.99998v-107.903789z" fill="#FFFFFF" p-id="3918"></path></svg>