<?xml version="1.0" encoding="utf-8"?>
<!-- Generator: Adobe Illustrator 23.0.1, SVG Export Plug-In . SVG Version: 6.00 Build 0)  -->
<svg version="1.1" id="图层_1" xmlns="http://www.w3.org/2000/svg" xmlns:xlink="http://www.w3.org/1999/xlink" x="0px" y="0px"
	 viewBox="0 0 129.6 101.8" style="enable-background:new 0 0 129.6 101.8;" xml:space="preserve">
<style type="text/css">
	.st0{fill:#6B9CFF;}
	.st1{fill:#FFFFFF;fill-opacity:0.4;}
	.st2{fill:#FFFFFF;}
</style>
<path class="st0" d="M9.9,0h109.7c6.6,0,9.9,3.3,9.9,9.9v82c0,6.6-3.3,9.9-9.9,9.9H9.9c-6.6,0-9.9-3.3-9.9-9.9v-82
	C0,3.3,3.3,0,9.9,0z"/>
<path class="st1" d="M9.9,0h109.7c5.5,0,9.9,4.4,9.9,9.9v15.5H0V9.9C0,4.4,4.4,0,9.9,0z"/>
<path class="st2" d="M9.3,12.7c0,1.9,1.6,3.5,3.5,3.5s3.5-1.6,3.5-3.5s-1.6-3.5-3.5-3.5S9.3,10.8,9.3,12.7L9.3,12.7z"/>
<path class="st2" d="M23.1,12.7c0,1.9,1.6,3.5,3.5,3.5s3.5-1.6,3.5-3.5s-1.6-3.5-3.5-3.5S23.1,10.8,23.1,12.7L23.1,12.7z"/>
<path class="st2" d="M37,12.7c0,1.9,1.6,3.5,3.5,3.5c1.9,0,3.5-1.6,3.5-3.5s-1.6-3.5-3.5-3.5C38.6,9.3,37,10.8,37,12.7L37,12.7z"/>
<path class="st2" d="M35.8,50.2c-0.9-0.9-0.9-2.4,0-3.3c0.9-0.9,2.4-0.9,3.3,0c0,0,0,0,0,0l15.5,15.5L39.1,78
	c-0.9,0.9-2.4,0.9-3.3,0s-0.9-2.4,0-3.3c0,0,0,0,0,0l12.2-12.2L35.8,50.2z M68.7,64c-1.3,0-2.3-1-2.3-2.3s1-2.3,2.3-2.3h24.7
	c1.3,0,2.3,1,2.3,2.3s-1,2.3-2.3,2.3H68.7L68.7,64z"/>
</svg>
