<?xml version="1.0" encoding="utf-8"?>
<!-- Generator: Adobe Illustrator 23.0.1, SVG Export Plug-In . SVG Version: 6.00 Build 0)  -->
<svg version="1.1" id="图层_1" xmlns="http://www.w3.org/2000/svg" xmlns:xlink="http://www.w3.org/1999/xlink" x="0px" y="0px"
	 viewBox="0 0 108.6 122" style="enable-background:new 0 0 108.6 122;" xml:space="preserve">
<style type="text/css">
	.st0{fill:#FFFFFF;}
	.st1{fill:#E6F9FF;}
	.st2{fill:#159FD7;}
</style>
<path class="st0" d="M62.9,3.2h3l29.1,34l-0.7,2h-25l-4.3-2l-3.7-5.8L62.9,3.2z"/>
<path class="st1" d="M94.7,37.5c-0.3-0.9-0.7-1.6-1.2-2.3L67,4.2c-0.7-0.8-1.5-1.4-2.5-1.9c-1-0.5-2.1-0.7-3.1-0.7H11
	c-1.9,0-4,0.7-5.5,2.2C4,5.2,3.1,7.1,3.1,9.1v102.4c0,1.9,0.9,3.9,2.4,5.3S9.1,119,11,119h76.8c1.9,0,3.7-0.7,5.1-2.2
	c1.5-1.5,2-3.4,2-5.3V40.1C94.9,39.3,95,38.4,94.7,37.5z M92.1,36.3c0,0,0-0.1-0.1-0.1H70.2c-1.8,0-3.5-0.3-4.9-1.6
	c-1.3-1.3-2-2.7-2-4.5V4c0,0.1,0.7,0.1,0.9,0.2c0.9,0.4,1.8,1,2.5,1.8l24.2,28.3c0.5,0.6,0.9,1.9,1.2,1.9h0.1
	C92.2,36.2,92.2,36.4,92.1,36.3z"/>
<path class="st2" d="M106.5,70c-1.5-1.5-3.2-2.2-5.2-2.2h-4.9V40.1c0-0.2,0.2-0.4,0.2-0.6c0.1-0.7,0.2-1.7-0.3-2.9
	c-0.3-0.9-0.6-1.9-1.4-2.9L68.6,2.7c-0.9-1.1-2-1.6-2.9-2l-0.3-0.2c-1.1-0.5-2-0.5-2.8-0.5c-0.2,0-0.5,0-0.7,0c-0.2,0-0.4,0-0.6,0
	H11c-3.2,0-5.9,0.8-7.5,2.5C2,4,0,6.1,0,9.1v102.4c0,2.5,1.5,5.3,3.5,7.3c2,2,5.1,3.2,7.5,3.2h76.8c2.9,0,4.9-1.7,6.4-3.2
	c1.7-1.7,2.3-4.1,2.3-7.3v-10.6h4.9c1.9,0,3.7-0.7,5.2-2.2s2-3.4,2-5.3V75.3C108.6,73.4,108,71.5,106.5,70z M63.3,4.8l0.4,0.1
	c0.8,0.3,1.2,0.5,1.4,0.8l26.1,30.6H69.3c-1.3,0-3.1-0.7-4.1-1.7c-1-1-1.9-2.6-1.9-3.9C63.3,30.6,63.3,4.8,63.3,4.8z M92,111.5
	c0,1.3,0,3.1-1,4.1c-1.3,1.3-2.2,1.9-3.2,1.9H11c-1.2,0-3.2-0.8-4.3-1.9c-1.1-1.1-2.1-2.9-2.1-4.1V9.1c0-1,0.7-2,2.1-3.3
	c1-1,2.9-1.2,4.3-1.2h47.8v26c0,2.5,1.3,5.2,3.2,7.1c1.9,1.9,4.7,3,7.3,3H92v27.1H39.6c-1.9,0-4.1,0.7-5.5,2.2
	c-1.5,1.5-2.4,3.4-2.4,5.3v18.1c0,1.9,0.9,3.8,2.4,5.3c1.5,1.5,3.6,2.2,5.5,2.2H92V111.5z"/>
<path class="st0" d="M62.7,78.8h-9.5v-2.7h13v2.8l-9.1,9.6h9.1v2.7h-13v-2.6L62.7,78.8z M68.7,91.1v-15h3.2v15H68.7z M78.1,85.9v5.2
	h-3.2v-15h7.5c1.4,0,2.3,0.1,2.9,0.3c1,0.3,1.8,1,2.3,2c0.4,0.8,0.6,1.6,0.6,2.5c0,0.8-0.1,1.5-0.4,2.2c-0.3,0.7-0.7,1.2-1.2,1.7
	c-0.5,0.4-0.9,0.7-1.4,0.8c-0.5,0.2-1.2,0.2-2.1,0.2C83.2,85.9,78.1,85.9,78.1,85.9z M78.1,83.2h4.3c0.8,0,1.3-0.1,1.6-0.4
	c0.5-0.4,0.7-1,0.7-2c0-1-0.4-1.7-1.1-1.9c-0.3-0.1-0.7-0.2-1.2-0.2h-4.4C78.1,78.8,78.1,83.2,78.1,83.2z"/>
<path class="st2" d="M26.5,32.6h9v13.6h-9V32.6z M29.5,43.2h3v-7.7h-3V43.2z M29.5,28.1H37v3h-7.5V28.1z M29.5,19.1H37v3h-7.5V19.1z
	 M25,14.5h7.5v3H25V14.5z M32.5,26.6H25v-3h7.5C32.5,23.6,32.5,26.6,32.5,26.6z"/>
</svg>
