<?xml version="1.0" standalone="no"?><!DOCTYPE svg PUBLIC "-//W3C//DTD SVG 1.1//EN" "http://www.w3.org/Graphics/SVG/1.1/DTD/svg11.dtd"><svg t="1562915984230" class="icon" viewBox="0 0 1210 1024" version="1.1" xmlns="http://www.w3.org/2000/svg" p-id="8283" xmlns:xlink="http://www.w3.org/1999/xlink" width="170.15625" height="144"><defs><style type="text/css"></style></defs><path d="M485.010346 391.169687l-485.008237-4.639209V61.153213A61.153213 61.153213 0 0 1 61.155321 0h242.082373a213.825371 213.825371 0 0 1 151.828665 63.261944l31.420099 31.630972z" fill="#F7C200" p-id="8284"></path><path d="M76.759934 84.349259m70.642504 0l901.904448 0q70.642504 0 70.642504 70.642504l0 168.487644q0 70.642504-70.642504 70.642504l-901.904448 0q-70.642504 0-70.642504-70.642504l0-168.487644q0-70.642504 70.642504-70.642504Z" fill="#FFECBB" p-id="8285"></path><path d="M1115.521054 1024H95.316771A95.525535 95.525535 0 0 1 0.002109 927.841845V184.092257h632.61944a88.566722 88.566722 0 0 0 54.194398-18.76771l98.688633-78.233937a297.54201 297.54201 0 0 1 184.514003-63.261944h145.502471a95.314662 95.314662 0 0 1 95.314663 95.314662V927.841845a95.525535 95.525535 0 0 1-95.314663 96.158155z" fill="#FFD23D" p-id="8286"></path></svg>