<?xml version="1.0" standalone="no"?><!DOCTYPE svg PUBLIC "-//W3C//DTD SVG 1.1//EN" "http://www.w3.org/Graphics/SVG/1.1/DTD/svg11.dtd"><svg t="1562912907623" class="icon" viewBox="0 0 1024 1024" version="1.1" xmlns="http://www.w3.org/2000/svg" p-id="6010" xmlns:xlink="http://www.w3.org/1999/xlink" width="144" height="144"><defs><style type="text/css"></style></defs><path d="M918.975 913.247H105.022c-39.904 0-72.35-33.468-72.35-74.625V185.406c0-41.158 32.446-74.653 72.35-74.653h345.89c16.736 0 32.066 9.201 39.817 23.918l114.215 213.857h296.507c39.904 0 89.874 48.007 89.874 89.168V838.62c0 41.158-32.446 74.627-72.35 74.627z m-776.366-70.822h738.778c22.282 0 40.348-17.923 40.348-40.03V468.252c0-26.194-21.402-47.428-47.805-47.428H589.97c-18.042 0-34.568-9.92-42.928-25.786l-111.769-198.21c-6.991-13.096-20.71-21.287-35.648-21.287H142.61c-22.28 0-40.346 17.922-40.346 40.03v586.825c0.003 22.107 18.065 40.03 40.346 40.03z" fill="#424050" p-id="6011"></path><path d="M879.677 386.607c-25.179 0.467-45.79-20.472-45.79-45.457v-69.517c0-17.588-14.373-33.858-32.1-33.858H517.269c-25.184 0-46.287-20.447-45.816-45.43 0.454-24.222 20.403-28.646 44.928-28.646h322.346c41.308 0 74.894 48.183 74.894 89.167v89.166c0 24.331-9.528 44.124-33.943 44.575z" fill="#424050" p-id="6012"></path></svg>