<?xml version="1.0" standalone="no"?><!DOCTYPE svg PUBLIC "-//W3C//DTD SVG 1.1//EN" "http://www.w3.org/Graphics/SVG/1.1/DTD/svg11.dtd"><svg t="1562911053167" class="icon" viewBox="0 0 1280 1024" version="1.1" xmlns="http://www.w3.org/2000/svg" p-id="5881" xmlns:xlink="http://www.w3.org/1999/xlink" width="180" height="144"><defs><style type="text/css"></style></defs><path d="M535.398633 93.090909h628.363636c39.563636 0 69.818182 30.254545 69.818182 69.818182v768c0 51.2-41.890909 93.090909-93.090909 93.090909H139.762269c-51.2 0-93.090909-41.890909-93.090909-93.090909V69.818182c0-39.563636 30.254545-69.818182 69.818182-69.818182h325.818182c39.563636 0 69.818182 30.254545 69.818181 69.818182 0 13.963636 9.309091 23.272727 23.272728 23.272727z" fill="#E8BD1C" p-id="5882"></path><path d="M163.034996 162.909091h954.181819c25.6 0 46.545455 20.945455 46.545454 46.545454v721.454546c0 25.6-20.945455 46.545455-46.545454 46.545454H163.034996c-25.6 0-46.545455-20.945455-46.545454-46.545454V209.454545c0-25.6 20.945455-46.545455 46.545454-46.545454z" fill="#FFFFFF" p-id="5883"></path><path d="M69.944087 256h1131.054546c39.563636 0 69.818182 30.254545 69.818182 69.818182v4.654545l-37.236364 628.363637c-2.327273 37.236364-32.581818 65.163636-69.818182 65.163636H107.180451c-37.236364 0-67.490909-27.927273-69.818182-65.163636L0.125905 330.472727c-2.327273-39.563636 27.927273-72.145455 65.163637-74.472727H69.944087z" fill="#FFD536" p-id="5884"></path></svg>