<?xml version="1.0" standalone="no"?><!DOCTYPE svg PUBLIC "-//W3C//DTD SVG 1.1//EN" "http://www.w3.org/Graphics/SVG/1.1/DTD/svg11.dtd"><svg t="1561091125325" class="icon" viewBox="0 0 1024 1024" version="1.1" xmlns="http://www.w3.org/2000/svg" p-id="21171" xmlns:xlink="http://www.w3.org/1999/xlink" width="144" height="144"><defs><style type="text/css"></style></defs><path d="M332.179394 26.14303h445.114182v129.660122h115.525818v560.934787H332.179394z" fill="#FFFFFF" p-id="21172"></path><path d="M67.708121 610.490182h338.975031l0.636121 0.99297a137.634909 137.634909 0 0 0 231.951515-0.99297h317.191757v279.350303a84.635152 84.635152 0 0 1-84.635151 84.635151H152.327758a84.635152 84.635152 0 0 1-84.619637-84.635151V610.490182z" fill="#D7D7D7" p-id="21173"></path><path d="M329.914182 55.466667v557.738666H298.201212V23.58303h495.678061l112.345212 117.310061v472.281212h-31.728485V153.755152l-94.114909-98.288485z" fill="#333333" p-id="21174"></path><path d="M163.84 224.240485v388.964848H132.080485V192.372364h178.734545v31.868121z" fill="#333333" p-id="21175"></path><path d="M83.564606 626.424242v263.043879c0 38.151758 30.797576 69.073455 68.763152 69.073455h719.499636c37.981091 0 68.763152-30.921697 68.763151-69.073455V626.424242H647.695515a153.956848 153.956848 0 0 1-41.161697 39.346425c-69.08897 44.962909-160.705939 27.073939-208.259879-39.346425H83.564606z m331.74497-31.868121l5.337212 8.269576c36.615758 56.754424 112.112485 72.967758 168.649697 36.196848a122.212848 122.212848 0 0 0 36.584727-37.081212l4.685576-7.385212h341.752242v294.912c0 55.745939-44.993939 100.941576-100.491636 100.941576H152.327758c-55.497697 0-100.491636-45.195636-100.491637-100.941576V594.556121h363.473455zM429.474909 237.226667v-31.868122h340.51103v31.868122zM429.474909 364.730182v-31.883637h340.51103v31.883637zM429.474909 492.218182v-31.868121h340.51103v31.868121zM884.642909 138.860606v31.868121h-123.143757V46.669576h31.728484V138.860606z" fill="#333333" p-id="21176"></path></svg>