<?xml version="1.0" standalone="no"?><!DOCTYPE svg PUBLIC "-//W3C//DTD SVG 1.1//EN" "http://www.w3.org/Graphics/SVG/1.1/DTD/svg11.dtd"><svg t="1566356102996" class="icon" viewBox="0 0 1024 1024" version="1.1" xmlns="http://www.w3.org/2000/svg" p-id="6864" xmlns:xlink="http://www.w3.org/1999/xlink" width="144" height="144"><defs><style type="text/css"></style></defs><path d="M73.141855 442.911934v-7.287253C73.141855 195.802749 267.556722 1.387883 507.378654 1.387883h7.290731c239.821932 0 434.236799 194.414867 434.236799 434.236798v7.290732c0 239.821932-194.414867 434.236799-434.236799 434.236798h-7.290731C267.556722 877.155689 73.141855 682.737344 73.141855 442.915413" fill="#E4EBF7" p-id="6865"></path><path d="M211.425742 455.11417a28.787258 28.787258 0 1 1-57.28233-5.774148 28.787258 28.787258 0 0 1 57.28233 5.774148" fill="#FFFFFF" p-id="6866"></path><path d="M211.843151 554.290379a19.712106 19.712106 0 1 1-39.225944-3.951465 19.712106 19.712106 0 0 1 39.225944 3.951465m61.612941-56.019671a19.854721 19.854721 0 1 1-39.507694-3.98277 19.854721 19.854721 0 0 1 39.507694 3.98277m144.110212-404.788644l103.725959-0.048697a15.955432 15.955432 0 1 0-0.010435-31.914342l-103.72596 0.045219a15.955432 15.955432 0 1 0 0.010436 31.91782m39.674657 63.779987l103.72596-0.045219a15.95891 15.95891 0 0 0-0.013914-31.914342l-103.725959 0.045219a15.955432 15.955432 0 1 0 0.013913 31.914342" fill="#FFFFFF" p-id="6867"></path><path d="M465.498689 93.433367v-0.006957l54.903103-0.02087a15.95891 15.95891 0 1 0 0.010435 31.914342l-54.899625 0.024348v-0.006956a15.951953 15.951953 0 0 0-0.013913-31.903907m249.488412 378.47453c-1.923557 19.079037-18.946858 32.98569-38.022417 31.062133-19.079037-1.923557-32.98569-18.950336-31.062133-38.025895 1.920078-19.079037 18.946858-32.98569 38.025895-31.062133 19.079037 1.923557 32.98569 18.946858 31.062133 38.025895" fill="#FFFFFF" p-id="6868"></path><path d="M715.491469 591.526677a23.77488 23.77488 0 1 1-47.306273-4.772369 23.77488 23.77488 0 0 1 47.306273 4.772369m64.94873-58.200629a23.948801 23.948801 0 1 1-47.654113-4.807152 23.948801 23.948801 0 0 1 47.654113 4.807152" fill="#FFFFFF" p-id="6869"></path><path d="M652.601954 229.351941h-13.743168a16.543282 16.543282 0 0 1-16.498063-16.494585 16.543282 16.543282 0 0 1 16.498063-16.498062h13.743168a16.543282 16.543282 0 0 1 16.498062 16.498062 16.543282 16.543282 0 0 1-16.498062 16.494585" fill="#FFFFFF" p-id="6870"></path><path d="M681.246597 104.456424c0-56.631869 45.907955-102.543303 102.543303-102.543303 56.628391 0 102.543303 45.911433 102.543303 102.543303 0 56.628391-45.914912 102.543303-102.543303 102.543303-56.635348 0-102.543303-45.914912-102.543303-102.543303" fill="#1890FF" p-id="6871"></path><path d="M789.525786 133.525433c1.739201 1.739201 2.730546 3.972336 2.730546 6.70636s-0.994823 5.09586-2.730546 6.831582a10.087367 10.087367 0 0 1-6.956805 2.608802c-2.730546 0-4.970637-0.991345-6.709838-2.730546-1.989646-1.739201-2.85229-3.975814-2.85229-6.709838s0.862644-4.967159 2.85229-6.70636c1.739201-1.739201 3.979292-2.608802 6.713316-2.608802 2.730546 0 5.085424 0.869601 6.953327 2.608802m14.904954-67.700146c4.967159 4.344525 7.454216 10.306506 7.454216 17.885945 0 5.955025-1.485278 10.8874-4.240172 14.78321-0.233053 0.333927-0.476541 0.626112-0.758292 0.921777-1.447015 1.492235-4.904547 4.68193-10.282157 9.388208a17.6355 17.6355 0 0 0-4.967159 6.087204 18.112041 18.112041 0 0 0-1.864424 8.198595v1.739201h-14.285798v-1.739201c0-4.720192 0.747857-8.821228 2.483579-12.174409 1.613979-3.35318 6.459393-8.570784 14.532765-15.778033l1.495713-1.739201c2.236613-2.730546 3.35318-5.715015 3.35318-8.81775 0-4.104515-1.245268-7.332472-3.478402-9.687351-2.358357-2.365314-5.715015-3.481881-9.941274-3.481881-5.342826 0-9.189939 1.613979-11.676997 4.974116-1.287009 1.739201-2.160088 3.947987-2.643586 6.622878a6.953326 6.953326 0 0 1-6.855931 5.669796h-0.013914c-4.44192 0-7.850754-4.11495-6.887237-8.452518 1.172222-5.280215 3.54797-9.669959 7.210729-13.162275 5.342826-5.217604 12.546597-7.826405 21.740015-7.826405 8.069894 0 14.657988 2.11139 19.625146 6.588094" fill="#FFFFFF" p-id="6872"></path><path d="M254.157916 264.814253s75.863956 18.644237 94.984734 55.463126c19.392093 37.358042-22.094812 32.210006-54.71527 17.165916-37.77545-17.419839-85.916539-41.121673-40.269464-72.629042" fill="#FFB594" p-id="6873"></path><path d="M387.878139 234.806075l-1.561802 10.063019c-2.619237 1.704417-16.515455-9.262986-16.515455-9.262986l-5.721972 2.601845-4.68193-19.771239s23.705312-15.962389 31.016915-17.454623c8.529043-1.74268 34.380529 3.269698 37.218905 7.9238 0 0 4.591491 1.690504-7.746402 2.400098-12.341372 0.706116-17.541583 1.554846-23.618352 10.894356-6.076769 9.342989-8.389907 12.60573-8.389907 12.60573" fill="#FFC6A0" p-id="6874"></path><path d="M518.568674 387.37924c-9.137763-26.86718-21.392175-45.845344-31.016914-53.838712-12.174408-10.108237-32.488278-7.739445-39.535522-14.564071-4.417571-4.281913-11.183064-4.163648-11.183063-4.163648s-52.106468-10.984795-58.534556-12.101362c-8.243814-1.426145-7.388127-2.483579-21.058248-4.887155-5.461092-6.633313-10.1465-3.902767-10.1465-3.902768l-24.731441-4.81063c-2.967077-5.120208-8.428169-3.558406-8.428169-3.558406l-8.584697-3.120127c-5.721972 34.700542-26.922835 47.988039-26.922835 47.98804 6.243732 3.902767 54.621353 28.87074 54.621353 28.870739l17.764201 129.083513s-11.551774 19.806023 4.68193 31.684768c0 0 69.161075-13.01966 121.46929-1.144394 0 0 10.598692-8.856013 3.381007-30.630812 1.819204-10.469991 4.848893-28.742039 6.038507-40.425993 1.339185 2.685327 7.022894 6.671576 10.922183 12.094405 0 0 32.721331-25.618434 38.443304-48.739374-2.894031-2.514885-5.558487-5.513268-7.885539-8.532521-1.972254-2.560104-1.245268-7.151595-2.660978-9.450819-2.327051-3.770588-6.275038-4.793239-6.633313-5.850673" fill="#FFFFFF" p-id="6875"></path><path d="M424.773553 1008.729739s14.939738 7.099419 25.580172 3.551448c9.812573-3.269698 15.757163 2.323573 24.627089 4.097558 8.869926 1.773985 23.910538 3.826243 40.64861-4.382787-0.358275-19.165997-23.962714-13.844042-41.601693-23.350515-8.915145-4.800195-13.162275-16.425016-12.515291-30.606463h-32.70394s-4.841936 36.592793-4.034947 50.690759" fill="#CBD1D1" p-id="6876"></path><path d="M424.69355 1008.131453s8.445561 4.421049 23.510522 2.271397c10.636955-1.520062 12.91183 1.673112 25.820181 3.586233 12.91183 1.913121 37.302387-0.24001 41.125152-3.109692 1.43658 3.826243-1.193092 7.175944-1.193092 7.175944s-5.259344 2.097477-16.738073 2.866204c-7.061157 0.473063-20.174734 1.012215-26.460207-1.749636-6.215905-4.782803-18.251177-6.6194-19.924289-0.838295-13.628381 3.304482-25.58365-0.994823-25.583649-0.994823l-0.556545-9.207332z" fill="#2B0849" p-id="6877"></path><path d="M449.995449 960.192112h10.762177s-0.358275 23.312253 15.778034 29.768167c-16.139787 2.149653-29.768168-8.010761-26.540211-29.768167" fill="#A4AABA" p-id="6878"></path><path d="M273.296086 947.520292s-7.328994 25.795832-15.600635 42.80522c-6.254168 12.852697-14.69625 26.060191 19.009469 26.06019 23.124419 0 31.142137-1.669633 25.820181-22.953977-5.321956-21.287823 0.925255-45.911433 0.925255-45.911433h-30.15427z" fill="#CBD1D1" p-id="6879"></path><path d="M252.196097 1008.016666s7.29421 4.066252 23.072243 4.066253c21.159122 0 28.693341-5.739364 28.693341-5.739364s2.093998 3.87494-2.153131 7.530741c-3.454054 2.974034-12.511813 5.534138-25.705393 5.37761-14.417978-0.166963-20.286043-1.968776-23.430519-4.062774-2.869682-1.913121-2.389662-5.495876-0.476541-7.172466" fill="#2B0849" p-id="6880"></path><path d="M276.346645 954.139691s0.114787 5.283693-1.092219 10.191719c-1.213962 4.939331-3.749718 10.796961-3.930594 14.397108-0.201747 4.003641 15.781512 5.495876 17.931164 0.118266 2.156609-5.381089 4.501053-22.355692 6.654184-25.225375 2.153131-2.869682-17.054607-7.370735-19.562535 0.521761" fill="#A4AABA" p-id="6881"></path><path d="M419.799438 968.783765l46.534067 0.320013s4.514966-189.642499 6.44548-224.019549c1.927035-34.373572 13.134447-150.837442 3.485359-219.584587l-43.643515-2.240091-79.478016 2.713154s-1.509627 13.795344-4.156691 34.700542c-0.219139 1.725288-2.37227 2.932293-2.605323 4.74802-0.26088 2.034865 1.471364 4.709757 1.113088 6.838539-8.222943 48.975906-22.181772 115.149033-30.41515 162.361388-0.403495 2.316616-4.292349 3.509708-5.071511 9.360381-0.139136 1.050478 0.733943 5.304564 0.389581 6.243733-23.90706 65.199175-38.085028 166.413728-49.661151 215.260932l50.809024-0.048698s7.64205-29.809909 14.017962-59.028488c9.777789-44.822693 80.389358-295.698988 80.389357-295.698988l10.490862-1.812248 3.627974 161.223951s-0.779162 4.292349 1.172221 7.026373c1.947905 2.730546-1.947905 3.906246-1.363533 7.805535l1.363533 6.240254s-1.561803 24.967972-3.123605 41.358205c-1.558324 16.383275-0.320013 136.23163-0.320013 136.231629" fill="#7BB2F9" p-id="6882"></path><path d="M477.474828 515.568803s-59.296326-10.796961-124.850297 0.695681c0.549588 8.744704-0.010435 14.43537-0.010435 14.43537s51.087296-9.802138 124.074613-1.085262c0.876557-8.191638 0.786119-14.045789 0.786119-14.045789" fill="#192064" p-id="6883"></path><path d="M442.972555 525.812698l0.010435-17.082434a2.817506 2.817506 0 0 0-2.706197-2.834898 383.354728 383.354728 0 0 0-27.256761-0.048697 2.845333 2.845333 0 0 0-2.74446 2.834898l-0.010435 17.065042a2.817506 2.817506 0 0 0 2.890552 2.827941c8.29599-0.208704 17.298095-0.222618 26.888051 0.059133a2.834898 2.834898 0 0 0 2.928815-2.817506" fill="#FFFFFF" p-id="6884"></path><path d="M439.094136 522.570827l0.006957-10.699565a2.233134 2.233134 0 0 0-2.153131-2.247048 328.086393 328.086393 0 0 0-20.404309-0.034784 2.260962 2.260962 0 0 0-2.191393 2.250526v10.685652a2.226178 2.226178 0 0 0 2.274875 2.240091 421.304098 421.304098 0 0 1 20.153864 0.038263c1.259182 0.034784 2.313138-0.973953 2.313137-2.233135" fill="#192064" p-id="6885"></path><path d="M236.195446 290.192677s-1.794856 21.026942 25.1245 19.31209c38.958107-2.476623 32.063913-32.50567 109.708812-75.324804-2.734024-9.419514-8.511651-16.501541-8.511651-16.501541s-38.498958 10.817831-78.556239 27.987226c-23.534871 10.087367-46.5932 22.094812-47.765422 44.527029m200.300324 26.54021l3.273176-18.685978-30.902127-39.758139-17.520713 18.685978-6.05242 27.249804a1.116567 1.116567 0 0 0 0.375668 1.113089c3.356658 2.782722 22.609616 17.437231 49.904639 12.327458a1.15483 1.15483 0 0 0 0.918298-0.932212" fill="#FFC6A0" p-id="6886"></path><path d="M399.909933 276.139931s-15.767598-9.923882-8.459475-23.844448c5.645447-10.748263 15.69803 3.94103 15.69803 3.94103s1.808769-12.668342 10.856094-12.668342c1.808769-3.617538 5.429786-14.477111 5.429787-14.477111s39.810315 9.047325 47.04887 10.856094c0 18.098128-8.014239 67.564488-27.270674 69.08455-30.929954 2.445317-43.302631-32.891773-43.302632-32.891773" fill="#FFC6A0" p-id="6887"></path><path d="M469.24145 255.474743c9.047325-7.238555 12.070056-33.817028 12.070056-33.817029s-8.62296-1.704417-23.096592-7.130725c-16.289358-7.238555-44.516594-16.511976-60.802474 3.394921-33.629194 11.210891-7.130725 68.952371-7.130725 68.952371l9.436906-10.508254s-13.687513-11.433509-7.235077-21.715666c7.548133-12.042229 13.635337 3.732326 13.635337 3.732326s2.215742-8.302947 12.456159-11.624821c1.234833-2.469666 3.603625-9.301248 4.981073-13.391849a3.732326 3.732326 0 0 1 4.393222-2.448795c8.348166 1.940949 30.182098 7.022894 39.500737 9.259507 1.815726 0.4348 3.029688 2.139217 2.85229 4.000163l-1.060912 11.297851z" fill="#520038" p-id="6888"></path><path d="M438.294104 264.5812c-0.358275 2.121825-2.02443 3.610582-3.721891 3.325353-1.700939-0.288707-2.7862-2.240091-2.427925-4.361917 0.358275-2.121825 2.02443-3.610582 3.721891-3.325353 1.69746 0.285229 2.782722 2.240091 2.427925 4.361917m24.887969 5.669796c-0.358275 2.121825-2.02443 3.610582-3.721891 3.325353-1.69746-0.288707-2.782722-2.240091-2.427925-4.361917 0.358275-2.121825 2.02443-3.610582 3.721891-3.325353 1.69746 0.285229 2.782722 2.236613 2.427925 4.361917" fill="#552950" p-id="6889"></path><path d="M594.99961 526.045751h-173.35314a3.513186 3.513186 0 0 1-3.513187-3.513186v-110.223615c0-1.93747 1.572238-3.513186 3.513187-3.513187h173.35314c1.940949 0 3.513186 1.575716 3.513186 3.513187v110.223615a3.513186 3.513186 0 0 1-3.513186 3.513186" fill="#F2D7AD" p-id="6890"></path><path d="M595.910951 526.045751h-69.091506v-117.246509h72.295115v114.042901a3.20013 3.20013 0 0 1-3.20013 3.20013" fill="#F4D19D" p-id="6891"></path><path d="M502.912385 444.873753H396.344571a1.801812 1.801812 0 0 1-1.478321-2.838376l22.192207-31.698681c0.671332-0.963517 1.773985-1.537454 2.956642-1.537454h108.150487l-25.253201 36.074511z" fill="#F2D7AD" p-id="6892"></path><path d="M503.381969 446.790353H418.373293v-1.805291h84.069508l24.985364-35.688409 1.474843 1.036564z" fill="#CC9B6E" p-id="6893"></path><path d="M623.765998 444.873753h-64.938295a7.210728 7.210728 0 0 1-5.770669-2.887074l-24.891448-33.187437h69.446304c1.704417 0 3.304482 0.800033 4.327133 2.163566l23.270512 31.027349a1.805291 1.805291 0 0 1-1.443537 2.887074" fill="#F4D19D" p-id="6894"></path><path d="M622.197238 446.901662h-67.425352l-27.329807-36.436265 1.443537-1.078305 26.783698 35.709279h66.527924z m-94.936036 77.241403l-0.111309-28.442896 1.805291-0.006957 0.111309 28.442897z" fill="#CC9B6E" p-id="6895"></path><path d="M527.11163 486.221522l-0.278272-74.486509 1.805291-0.006956 0.278272 74.486509z m-64.820028 3.996685l-1.732245-0.497412 5.144557-17.972905 1.732245 0.497412z m-11.962226 0.445235l-9.31864-10.209111 9.269942-11.944834 1.426145 1.106132-8.33773 10.744785 8.292511 9.085587z m28.418547 0l-1.332228-1.217441 8.289033-9.085587-8.33773-10.744785 1.426145-1.106132 9.269942 11.944834z" fill="#CC9B6E" p-id="6896"></path><path d="M609.914999 458.773449l-10.831745-6.817669 0.13218 12.223106-3.627974 0.320013c-5.850673 0.400016-12.640514 0.800033-16.658069 0.800033-6.615921 0-9.367338 7.854233 7.756837 9.21081l-9.200374-2.073128s-7.541176 4.581056 1.753115 8.000325c0 0-5.495876 4.233216 1.951383 8.974278-2.031387 12.188322 18.251177 14.115357 24.773182 12.487465 6.525483-1.634849 14.724077-8.205551 15.607592-17.948556 0.973953-10.730871-3.095778-18.894682-11.652648-25.176677" fill="#FFC6A0" p-id="6897"></path><path d="M659.485712 863.749927a23.120941 23.120941 0 0 1-23.120941-23.120941v-231.195494a23.120941 23.120941 0 1 1 46.241882 0v231.195494a23.120941 23.120941 0 0 1-23.120941 23.120941" fill="#5BA02E" p-id="6898"></path><path d="M687.22945 861.436789a23.120941 23.120941 0 0 1-23.117463-23.120941v-115.594268a23.120941 23.120941 0 1 1 46.238403 0v115.594268a23.120941 23.120941 0 0 1-23.12094 23.120941" fill="#92C110" p-id="6899"></path><path d="M721.665633 1021.304163H625.929564a11.085668 11.085668 0 0 1-11.085668-11.085668v-160.472616a11.085668 11.085668 0 0 1 11.085668-11.085669h95.739548a11.085668 11.085668 0 0 1 11.085668 11.085669v160.472616a11.085668 11.085668 0 0 1-11.085668 11.085668" fill="#F2D7AD" p-id="6900"></path></svg>