<?xml version="1.0" encoding="utf-8"?>
<!-- Generator: Adobe Illustrator 23.0.1, SVG Export Plug-In . SVG Version: 6.00 Build 0)  -->
<svg version="1.1" id="图层_1" xmlns="http://www.w3.org/2000/svg" xmlns:xlink="http://www.w3.org/1999/xlink" x="0px" y="0px"
	 viewBox="0 0 48 48" style="enable-background:new 0 0 48 48;" xml:space="preserve">
<style type="text/css">
	.st0{fill:#FFFFFF;}
	.st1{fill:#8080F2;}
	.st2{fill:#4B32C3;}
</style>
<polygon class="st0" points="39.75,33.19 24.63,41.92 9.51,33.19 9.51,15.73 24.63,7 39.75,15.73 "/>
<path class="st1" d="M14.9,18.19l8.77-5.07c0.22-0.13,0.49-0.13,0.71,0l8.77,5.07c0.22,0.13,0.35,0.36,0.35,0.61v10.13
	c0,0.25-0.14,0.49-0.35,0.61l-8.77,5.07c-0.22,0.13-0.49,0.13-0.71,0l-8.77-5.07c-0.22-0.13-0.35-0.36-0.35-0.61V18.8
	C14.55,18.55,14.68,18.32,14.9,18.19"/>
<path class="st2" d="M46.84,22.8L36.36,4.57c-0.38-0.66-1.08-1.15-1.85-1.15H13.55c-0.76,0-1.47,0.49-1.85,1.15L1.22,22.76
	c-0.38,0.66-0.38,1.49,0,2.15L11.7,43c0.38,0.66,1.08,1,1.85,1h20.97c0.76,0,1.47-0.33,1.85-0.99L46.84,24.9
	C47.23,24.24,47.23,23.46,46.84,22.8 M38.16,31.57c0,0.27-0.16,0.52-0.39,0.65l-13.35,7.7c-0.23,0.13-0.52,0.13-0.76,0l-13.36-7.7
	c-0.23-0.13-0.39-0.38-0.39-0.65V16.17c0-0.27,0.16-0.52,0.39-0.65l13.35-7.7c0.23-0.13,0.52-0.13,0.76,0l13.36,7.7
	c0.23,0.13,0.4,0.38,0.4,0.65V31.57L38.16,31.57z"/>
</svg>
