<?xml version="1.0" encoding="utf-8"?>
<!-- Generator: Adobe Illustrator 23.0.1, SVG Export Plug-In . SVG Version: 6.00 Build 0)  -->
<svg version="1.1" id="图层_1" xmlns="http://www.w3.org/2000/svg" xmlns:xlink="http://www.w3.org/1999/xlink" x="0px" y="0px"
	 viewBox="0 0 48 48" style="enable-background:new 0 0 48 48;" xml:space="preserve">
<style type="text/css">
	.st0{fill:#FFFFFF;}
	.st1{fill:#8ED6FB;}
	.st2{fill:#1C78C0;}
</style>
<path class="st0" d="M24,2l19.44,11v22L24,46L4.56,35V13L24,2z"/>
<path class="st1" d="M39.97,34.24l-15.33,8.67v-6.75l9.55-5.25L39.97,34.24L39.97,34.24z M41.02,33.29V15.16l-5.61,3.24v11.66
	L41.02,33.29z M7.97,34.24l15.33,8.67v-6.75l-9.55-5.25L7.97,34.24L7.97,34.24z M6.92,33.29V15.16l5.61,3.24v11.66L6.92,33.29z
	 M7.57,13.98l15.72-8.9v6.53l-10.07,5.54l-0.08,0.04L7.57,13.98z M40.36,13.98l-15.72-8.9v6.53l10.07,5.54l0.08,0.04L40.36,13.98z"
	/>
<path class="st2" d="M23.3,34.62l-9.42-5.18V19.17l9.42,5.44V34.62z M24.64,34.62l9.42-5.18V19.17l-9.42,5.44V34.62z M14.51,17.99
	l9.46-5.2l9.46,5.2l-9.46,5.46L14.51,17.99L14.51,17.99z"/>
</svg>
