<?xml version="1.0" encoding="utf-8"?>
<!-- Generator: Adobe Illustrator 23.0.1, SVG Export Plug-In . SVG Version: 6.00 Build 0)  -->
<svg version="1.1" id="图层_1" xmlns="http://www.w3.org/2000/svg" xmlns:xlink="http://www.w3.org/1999/xlink" x="0px" y="0px"
	 viewBox="0 0 48 48" style="enable-background:new 0 0 48 48;" xml:space="preserve">
<style type="text/css">
	.st0{fill:#2C8EBB;}
	.st1{fill:#FFFFFF;}
</style>
<circle class="st0" cx="24" cy="24" r="23"/>
<path class="st1" d="M39.65,30.97c-0.16-1.26-1.23-2.13-2.59-2.11c-2.04,0.03-3.76,1.08-4.89,1.78c-0.44,0.28-0.83,0.48-1.15,0.63
	c0.07-1.03,0.01-2.38-0.52-3.86c-0.65-1.78-1.52-2.87-2.14-3.5c0.72-1.05,1.71-2.58,2.17-4.94c0.4-2.02,0.28-5.15-0.64-6.91
	c-0.19-0.36-0.5-0.61-0.89-0.72c-0.16-0.04-0.46-0.13-1.06,0.04c-0.9-1.86-1.21-2.05-1.45-2.21c-0.5-0.32-1.08-0.39-1.63-0.19
	c-0.74,0.27-1.37,0.98-1.96,2.24c-0.09,0.19-0.17,0.36-0.24,0.54c-1.13,0.08-2.9,0.49-4.4,2.11c-0.19,0.2-0.55,0.36-0.93,0.5h0.01
	c-0.78,0.28-1.14,0.91-1.57,2.07c-0.6,1.62,0.02,3.21,0.63,4.24c-0.83,0.75-1.94,1.94-2.53,3.33c-0.73,1.72-0.81,3.41-0.78,4.32
	c-0.62,0.66-1.58,1.89-1.69,3.28c-0.14,1.94,0.56,3.25,0.87,3.73c0.09,0.14,0.19,0.26,0.29,0.37c-0.04,0.24-0.04,0.5,0.01,0.76
	c0.12,0.62,0.51,1.13,1.1,1.45c1.17,0.62,2.81,0.89,4.07,0.26c0.45,0.48,1.28,0.94,2.78,0.94h0.09c0.38,0,5.23-0.26,6.64-0.6
	c0.63-0.15,1.07-0.42,1.35-0.66c0.91-0.28,3.41-1.14,5.77-2.66c1.67-1.08,2.25-1.31,3.49-1.62C39.04,33.29,39.8,32.19,39.65,30.97
	L39.65,30.97z M37.53,32.28c-1.42,0.34-2.14,0.65-3.9,1.79c-2.74,1.78-5.75,2.6-5.75,2.6s-0.25,0.37-0.97,0.54
	c-1.24,0.3-5.92,0.56-6.35,0.57c-1.15,0.01-1.85-0.29-2.04-0.76c-0.59-1.42,0.85-2.04,0.85-2.04s-0.32-0.2-0.51-0.37
	c-0.17-0.17-0.35-0.51-0.4-0.38c-0.22,0.54-0.34,1.86-0.93,2.46c-0.82,0.83-2.36,0.55-3.28,0.07c-1-0.53,0.07-1.78,0.07-1.78
	s-0.54,0.32-0.98-0.34c-0.39-0.6-0.75-1.63-0.66-2.9c0.11-1.45,1.72-2.85,1.72-2.85s-0.28-2.14,0.65-4.33
	c0.84-2,3.12-3.61,3.12-3.61s-1.91-2.11-1.2-4.01c0.46-1.24,0.65-1.23,0.8-1.29c0.53-0.2,1.05-0.43,1.43-0.84
	c1.91-2.06,4.34-1.67,4.34-1.67s1.15-3.51,2.22-2.82c0.33,0.21,1.51,2.84,1.51,2.84s1.26-0.74,1.4-0.46
	c0.76,1.48,0.85,4.32,0.52,6.04c-0.57,2.84-1.99,4.37-2.56,5.33c-0.13,0.22,1.53,0.92,2.58,3.83c0.97,2.66,0.11,4.88,0.26,5.13
	c0.03,0.04,0.04,0.06,0.04,0.06s1.11,0.09,3.34-1.29c1.19-0.74,2.6-1.56,4.21-1.58C38.63,30.17,38.71,31.99,37.53,32.28L37.53,32.28
	z"/>
</svg>
