<?xml version="1.0" standalone="no"?><!DOCTYPE svg PUBLIC "-//W3C//DTD SVG 1.1//EN" "http://www.w3.org/Graphics/SVG/1.1/DTD/svg11.dtd"><svg t="1564468550759" class="icon" viewBox="0 0 1063 1024" version="1.1" xmlns="http://www.w3.org/2000/svg" p-id="8868" xmlns:xlink="http://www.w3.org/1999/xlink" width="149.484375" height="144"><defs><style type="text/css"></style></defs><path d="M492.307692 472.615385c19.692308-19.692308 19.692308-55.138462 0-74.83077s-55.138462-19.692308-74.830769 0L354.461538 460.8l-55.138461-55.138462-169.353846 169.353847c-78.769231 78.769231-90.584615 200.861538-35.446154 291.446153l-47.261539 47.261539c-19.692308 19.692308-19.692308 55.138462 0 74.830769s55.138462 19.692308 74.83077 0l47.261538-47.261538c90.584615 55.138462 212.676923 47.261538 291.446154-35.446154l169.353846-169.353846-55.138461-55.138462 63.015384-63.015384c19.692308-19.692308 19.692308-55.138462 0-74.83077s-55.138462-19.692308-74.830769 0l-63.015385 63.015385-66.953846-70.892308 59.076923-63.015384z m7.876923 267.815384l-98.461538 98.461539c-55.138462 55.138462-141.784615 55.138462-196.923077 0s-51.2-141.784615 0-196.923077l98.461538-98.461539 196.923077 196.923077zM933.415385 31.507692L886.153846 78.769231c-90.584615-55.138462-212.676923-47.261538-291.446154 35.446154l-169.353846 169.353846 334.769231 334.769231 169.353846-169.353847c78.769231-78.769231 90.584615-200.861538 35.446154-291.446153l47.261538-47.261539c19.692308-19.692308 19.692308-55.138462 0-74.830769-23.630769-23.630769-55.138462-23.630769-78.76923-3.938462z m-74.83077 350.523077l-98.461538 98.461539-196.923077-196.923077 98.461538-98.461539c55.138462-55.138462 141.784615-55.138462 196.923077 0s55.138462 141.784615 0 196.923077z" p-id="8869" fill="#ffffff"></path></svg>