<?xml version="1.0" standalone="no"?><!DOCTYPE svg PUBLIC "-//W3C//DTD SVG 1.1//EN" "http://www.w3.org/Graphics/SVG/1.1/DTD/svg11.dtd"><svg t="1561430446201" class="icon" viewBox="0 0 1024 1024" version="1.1" xmlns="http://www.w3.org/2000/svg" p-id="8355" xmlns:xlink="http://www.w3.org/1999/xlink" width="144" height="144"><defs><style type="text/css"></style></defs><path d="M169.6 84.8c-17.6 0-30.4 14.4-30.4 30.4v793.6c0 17.6 14.4 30.4 30.4 30.4h684.8c17.6 0 30.4-14.4 30.4-30.4V272L699.2 84.8H169.6z" fill="#4285F4" p-id="8356"></path><path d="M697.6 84.8V240c0 17.6 14.4 30.4 30.4 30.4h155.2L697.6 84.8z" fill="#B2CFF9" p-id="8357"></path><path d="M371.2 387.2c0 30.4 24 54.4 54.4 54.4s54.4-24 54.4-54.4-24-54.4-54.4-54.4c-30.4 1.6-54.4 25.6-54.4 54.4zM614.4 428.8l-72 137.6c-3.2 6.4-12.8 9.6-19.2 4.8l-110.4-76.8c-6.4-4.8-14.4-3.2-17.6 3.2L284.8 672c-6.4 9.6 1.6 22.4 12.8 22.4h459.2c11.2 0 19.2-12.8 12.8-22.4l-134.4-243.2c-3.2-9.6-16-9.6-20.8 0z" fill="#FFFFFF" p-id="8358"></path></svg>