<?xml version="1.0" standalone="no"?><!DOCTYPE svg PUBLIC "-//W3C//DTD SVG 1.1//EN" "http://www.w3.org/Graphics/SVG/1.1/DTD/svg11.dtd"><svg t="1564038200098" class="icon" viewBox="0 0 1024 1024" version="1.1" xmlns="http://www.w3.org/2000/svg" p-id="2383" xmlns:xlink="http://www.w3.org/1999/xlink" width="144" height="144"><defs><style type="text/css"></style></defs><path d="M992.28095061 617.97228063c-37.27774347-22.70457485-59.66550939-62.30557592-59.66550939-106.02508178s22.28216364-83.21490566 59.66550939-106.02508281c14.67877091-8.97622662 19.53649378-27.98470792 10.98267838-42.87468443L886.36147113 160.92391735c-8.55381643-14.88997651-27.45669441-20.17011061-42.55787653-11.93310106-38.33376947 20.9093287-83.74291917 20.38131519-121.54867513-1.37283492-37.80575698-21.85975344-60.93274203-60.93274203-61.98876802-104.65224788-0.42241019-17.21323515-14.46756632-30.94158235-31.68080149-30.94158235H395.09784213c-17.21323515 0-31.25839128 13.72834721-31.68080147 30.94158235-1.05602702 43.71950585-24.18301207 82.79249444-61.98876803 104.65224788-37.80575698 21.75415012-83.21490566 22.28216364-121.54867513 1.37283492-15.10118213-8.23700853-34.00406011-2.95687443-42.55787653 11.93310106L20.4195631 363.04743161c-8.65941872 14.88997651-3.80169585 34.00406011 10.98267735 42.87468443 37.27774347 22.70457485 59.66550939 62.30557592 59.66551043 106.02508281 0 43.61390356-22.28216364 83.21490566-59.66551043 106.02508178-14.67877091 8.97622662-19.53649378 27.98470792-10.98267735 42.87468547l116.90215787 202.22911655c8.55381643 14.88997651 27.45669441 20.17011061 42.55787653 11.93310106 38.33376947-20.9093287 83.74291917-20.38131519 121.54867513 1.37283492 37.80575698 21.85975344 60.93274203 60.93274203 61.98876803 104.65224788 0.42241019 17.21323515 14.46756632 30.94158235 31.68080147 30.94158235h233.48750783c17.21323515 0 31.25839128-13.72834721 31.68080149-30.94158235 1.05602702-43.71950585 24.18301207-82.79249444 61.98876802-104.65224788 37.70015366-21.75415012 83.21490566-22.28216364 121.54867513-1.37283492 15.10118213 8.23700853 34.00406011 2.95687443 42.55787653-11.93310106l116.90215786-202.22911655c8.65941872-14.88997651 3.69609356-33.89845781-10.98267838-42.87468547zM845.70444303 806.8954612c-19.74769939-6.8641736-40.65702913-10.34906155-61.56635783-10.34906258h-0.52801351c-32.52562289 0.10560229-64.73443788 8.76502204-93.0359537 25.13343577-28.30151581 16.36841373-51.95651438 39.91781-68.32492914 68.11372354-10.66586945 18.26926217-18.05805656 38.33376947-22.07095802 59.03189359H423.39935795c-4.01290146-20.69812413-11.40508857-40.65702913-22.07095802-59.03189359-16.36841373-28.19591353-39.91781-51.74530877-68.32492811-68.11372354-28.30151581-16.36841373-60.51033081-25.02783349-93.0359537-25.13343577h-0.52801351c-21.01493202 0-41.81865844 3.59049127-61.56635783 10.34906258l-88.49503873-153.12387431c15.94600355-13.83394949 29.56874845-30.20236426 40.0234123-48.57722872 16.26281145-28.19591353 24.81662787-60.51033081 24.81662787-93.24715932s-8.55381643-64.94564349-24.81662787-93.2471593c-10.56026715-18.37486447-24.18301207-34.74327923-40.0234123-48.57722873l88.49503873-153.12387431c19.74769939 6.8641736 40.65702913 10.34906155 61.56635783 10.34906155h0.52801351c32.52562289-0.10560229 64.73443788-8.76502204 93.0359537-25.13343577 28.30151581-16.36841373 51.95651438-39.91781 68.32492811-68.11372354 10.66586945-18.26926217 18.05805656-38.33376947 22.07095802-59.03189257h176.77887288c4.01290146 20.69812413 11.40508857 40.65702913 22.07095802 59.03189257 16.36841373 28.19591353 39.91781 51.74530877 68.32492914 68.11372354 28.30151581 16.36841373 60.51033081 25.02783349 93.0359537 25.13343577 21.12053432 0 42.13546634-3.48488794 62.09437134-10.34906155l88.49503873 153.12387431c-15.94600355 13.83394949-29.56874845 30.20236426-40.02341229 48.57722873-16.26281145 28.19591353-24.81662787 60.51033081-24.81662788 93.2471593s8.55381643 64.94564349 24.81662788 93.24715932c10.56026715 18.37486447 24.18301207 34.74327923 40.02341229 48.57722872l-88.49503873 153.12387431z" p-id="2384" fill="#ffffff"></path><path d="M511.89439771 293.56087315c-120.49264811 0-218.49192799 97.99927886-218.49192799 218.491928s97.99927886 218.49192799 218.49192799 218.49192799c19.74769939 0 39.38979649-2.64006653 58.39827676-7.92020063 16.89642725-4.64651726 26.71747632-22.07095802 22.07095905-38.96738527-4.64651726-16.89642725-22.07095802-26.71747632-38.9673863-22.07095905-13.4115393 3.69609356-27.35109211 5.596942-41.50184951 5.596942-85.5381643 0-155.13032504-69.59216075-155.13032504-155.13032504s69.59216075-155.13032504 155.13032504-155.13032505S666.91911943 426.51463685 666.91911943 512.05280115c0 13.62274491-1.79524511 27.13988651-5.28013409 40.12901561-4.54091497 16.89642725 5.49133868 34.320868 22.38776695 38.75618069 16.89642725 4.54091497 34.320868-5.49133868 38.75618069-22.38776696 4.85772287-18.37486447 7.39218711-37.38334576 7.39218711-56.49742934 0.10560229-120.49264811-97.89367657-218.49192799-218.28072238-218.491928z" p-id="2385" fill="#ffffff"></path></svg>